<?xml version="1.0" standalone="no"?>
<!DOCTYPE svg PUBLIC "-//W3C//DTD SVG 1.1//EN" "http://www.w3.org/Graphics/SVG/1.1/DTD/svg11.dtd" >
<svg xmlns="http://www.w3.org/2000/svg" xmlns:xlink="http://www.w3.org/1999/xlink" version="1.1">
<metadata>
Created by FontForge 20190801 at Sun May 11 21:52:13 2008
 By Jimmy Wärting
Digital font data licensed from the WSI-Fonts Collection.  Copyright (c)1992 W.S.I.  All Rights Reserved.  Redistribution strictly prohibited.
</metadata>
<defs>
<font id="SlideR" horiz-adv-x="708" >
  <font-face 
    font-family="SlideR"
    font-weight="5"
    font-stretch="normal"
    units-per-em="1000"
    panose-1="0 0 0 0 0 0 0 0 0 0"
    ascent="800"
    descent="-200"
    x-height="513"
    cap-height="700"
    bbox="-92 -232 1209 921"
    underline-thickness="70"
    underline-position="-135"
    unicode-range="U+0008-F812"
  />
<missing-glyph horiz-adv-x="800" 
d="M50 0v800h700v-800h-700zM700 50v700h-600v-700h600z" />
    <glyph glyph-name=".notdef" horiz-adv-x="800" 
d="M50 0v800h700v-800h-700zM700 50v700h-600v-700h600z" />
    <glyph glyph-name=".null" horiz-adv-x="0" 
 />
    <glyph glyph-name="nonmarkingreturn" horiz-adv-x="300" 
 />
    <glyph glyph-name="space" unicode=" " horiz-adv-x="300" 
 />
    <glyph glyph-name="exclam" unicode="!" horiz-adv-x="302" 
d="M220 182h-141v518h141v-518zM222 2h-143v122h143v-122z" />
    <glyph glyph-name="quotedbl" unicode="&#x22;" horiz-adv-x="319" 
d="M281 422h-86v261h86v-261zM126 422h-86v261h86v-261z" />
    <glyph glyph-name="numbersign" unicode="#" horiz-adv-x="743" 
d="M718 500l-34 -94h-131l-39 -116h134l-31 -96h-137l-71 -196h-99l68 196h-117l-73 -196h-96l65 195h-135l38 96h131l40 116h-138l34 94h138l71 197h98l-65 -196h117l68 196h101l-68 -196h131zM453 406h-120l-43 -119h122z" />
    <glyph glyph-name="dollar" unicode="$" horiz-adv-x="726" 
d="M682 210q0 -110 -54.5 -159.5t-181.5 -49.5h-63v-67h-52v67h-261v122h261v160l-54 1q-128 0 -181.5 49.5t-53.5 156.5q0 110 61 160.5t181 50.5h47v62h52v-62h261v-124h-261v-170h99q81 0 129 -32q71 -48 71 -165zM331 407v170q-75 0 -104 -13q-43 -19 -43 -76
q0 -49 41 -69q28 -14 73 -14q12 0 20 0.5t13 1.5zM540 210q0 33 -27 52q-33 23 -97 23q-12 0 -20 -0.5t-13 -1.5v-160q6 -1 13 -1.5t19 -0.5q50 0 79 14q46 22 46 75z" />
    <glyph glyph-name="percent" unicode="%" horiz-adv-x="890" 
d="M862 188q0 -112 -55 -159q-42 -36 -123 -36t-123 36q-55 47 -55 159q0 108 51 155q44 40 127 40q101 0 143 -57q35 -47 35 -138zM610 698l-269 -696h-71l270 696h70zM384 513q0 -113 -54 -159q-42 -36 -123 -36t-123 36q-56 48 -56 159q0 108 51 155q44 40 128 40
q100 0 142 -57q35 -48 35 -138zM787 186q0 72 -31 106q-26 28 -69 28q-47 0 -71 -27q-30 -33 -30 -107q0 -134 101 -134q100 0 100 134zM307 513q0 72 -31 106q-26 28 -69 28q-47 0 -71 -27q-30 -33 -30 -107q0 -134 101 -134q100 0 100 134z" />
    <glyph glyph-name="ampersand" unicode="&#x26;" horiz-adv-x="777" 
d="M746 289h-85q-19 -83 -50 -139q-41 -75 -107 -115q-76 -47 -190 -47q-108 0 -171 36q-87 50 -87 163q0 52 20.5 86.5t71.5 70.5q-46 36 -60 55q-33 46 -33 119q0 82 56 132t151 50h232v-126h-194q-45 0 -75.5 -21t-30.5 -60q0 -42 27.5 -64.5t86.5 -22.5h22v-116h-22
q-40 0 -64 -12q-42 -21 -42 -73q0 -39 31.5 -67.5t81.5 -28.5q98 0 148 64q30 39 48 117h-96v116h331v-117z" />
    <glyph glyph-name="quotesingle" unicode="'" horiz-adv-x="190" 
d="M151 628q1 -8 1 -17q0 -27 -9 -52q-14 -38 -48 -69v92h-55v118h111v-72z" />
    <glyph glyph-name="parenleft" unicode="(" horiz-adv-x="336" 
d="M294 -122h-86q-77 112 -111 203q-38 101 -38 208q0 200 149 411h86q-34 -68 -51 -109q-30 -72 -45 -137q-19 -81 -19 -166v-30q0 -72 16 -137q26 -105 99 -243z" />
    <glyph glyph-name="parenright" unicode=")" horiz-adv-x="336" 
d="M279 289q0 -200 -149 -411h-86q34 68 51 109q30 72 45 137q19 81 19 166v30q0 72 -16 137q-26 105 -99 243h86q77 -112 111 -203q38 -101 38 -208z" />
    <glyph glyph-name="asterisk" unicode="*" horiz-adv-x="483" 
d="M408 472l-37 -68l-89 53l-1 -106h-80l-1 106l-88 -53l-38 68l93 52l-93 55l38 64l88 -49v106h81l1 -106l89 49l37 -64l-91 -55z" />
    <glyph glyph-name="plus" unicode="+" horiz-adv-x="803" 
d="M682 245h-232v-243h-95v243h-233v94h233v241h95v-241h232v-94z" />
    <glyph glyph-name="comma" unicode="," horiz-adv-x="190" 
d="M151 50q1 -8 1 -17q0 -27 -9 -52q-14 -38 -48 -69v92h-55v118h111v-72z" />
    <glyph glyph-name="hyphen" unicode="-" horiz-adv-x="374" 
d="M347 204h-321v118h321v-118z" />
    <glyph glyph-name="period" unicode="." horiz-adv-x="190" 
d="M151 2h-111v118h111v-118z" />
    <glyph glyph-name="slash" unicode="/" horiz-adv-x="405" 
d="M406 708l-342 -796h-65l339 796h68z" />
    <glyph glyph-name="zero" unicode="0" horiz-adv-x="748" 
d="M719 350q0 -207 -107 -293q-82 -66 -238 -66t-239 67q-107 87 -107 292q0 198 100 285q84 73 246 73q93 0 158 -23q87 -31 132 -102q55 -86 55 -233zM568 350v16q0 111 -50.5 170.5t-143.5 59.5q-92 0 -139 -50q-57 -60 -57 -197q0 -121 48 -183.5t148 -62.5q92 0 140 53
q54 60 54 194z" />
    <glyph glyph-name="one" unicode="1" horiz-adv-x="324" 
d="M247 2h-148v698h148v-698z" />
    <glyph glyph-name="two" unicode="2" horiz-adv-x="748" 
d="M679 504q0 -101 -47 -153q-51 -57 -160 -57h-131q-59 0 -87.5 -24.5t-28.5 -106.5v-43h451v-118h-604v210q0 107 52 153q57 51 196 51h118q35 0 58 21t23 57q0 45 -23 65q-27 23 -93 23h-331v118h396q100 0 153 -45q58 -49 58 -151z" />
    <glyph glyph-name="three" unicode="3" horiz-adv-x="748" 
d="M660 188q0 -98 -64 -145q-55 -41 -150 -41h-345v116h283q56 0 85.5 20t29.5 68q0 45 -31 66.5t-84 21.5h-228v116h224q56 0 83 18q32 21 32 68q0 88 -115 88h-279v116h330q134 0 185 -53q43 -45 43 -134q0 -46 -23.5 -86.5t-69.5 -75.5q36 -19 60 -51q34 -46 34 -112z
" />
    <glyph glyph-name="four" unicode="4" horiz-adv-x="767" 
d="M714 129h-92v-127h-146v127h-445v135l406 436h184l1 -453h92v-118zM475 248v304l-280 -304h280z" />
    <glyph glyph-name="five" unicode="5" horiz-adv-x="748" 
d="M682 208q0 -206 -241 -206h-368v116h336q52 0 76 17q30 21 30 73q0 48 -27 69t-79 21h-336v402h574v-117h-422v-168h243q93 0 153.5 -54.5t60.5 -152.5z" />
    <glyph glyph-name="six" unicode="6" horiz-adv-x="748" 
d="M703 215q0 -111 -69 -165q-74 -58 -233 -58q-100 0 -161 21q-87 30 -134 105q-56 90 -56 247q0 150 70 231q90 104 298 104h247v-116h-251q-103 0 -141 -30q-47 -37 -58 -151h249q115 0 174 -43q65 -47 65 -145zM546 204q0 34 -21 57q-24 26 -69 26h-241q0 -77 28 -117
q45 -64 160 -64q76 0 109.5 24.5t33.5 73.5z" />
    <glyph glyph-name="seven" unicode="7" horiz-adv-x="748" 
d="M678 583l-415 -581h-182l429 581h-443v117h611v-117z" />
    <glyph glyph-name="eight" unicode="8" horiz-adv-x="748" 
d="M704 187q0 -79 -43 -126q-54 -59 -172 -59h-229q-111 0 -165 51q-50 47 -50 131q0 72 28 111q25 34 75 56q-48 39 -69 74q-24 40 -24 90q0 73 28 112q52 73 198 73h188q119 0 172 -42t53 -135q0 -62 -20 -98.5t-71 -73.5q53 -25 77 -62.5t24 -101.5zM543 496
q0 46 -29.5 67t-83.5 21h-107q-115 0 -115 -88q0 -45 30.5 -65.5t84.5 -20.5h107q53 0 80 17q33 21 33 69zM543 206q0 88 -113 88h-108q-53 0 -80 -17q-35 -22 -35 -71q0 -88 115 -88h108q113 0 113 88z" />
    <glyph glyph-name="nine" unicode="9" horiz-adv-x="748" 
d="M701 370q0 -203 -96 -290q-86 -78 -272 -78h-245v116h248q110 0 159 56q39 45 39 124h-246q-119 0 -175 43q-63 49 -63 165q0 109 94 161q77 42 205 42q89 0 148 -17q91 -26 141 -93q63 -84 63 -229zM534 414q0 81 -32 122q-45 57 -158 57q-62 0 -99.5 -24t-37.5 -71
q0 -37 22 -60.5t67 -23.5h238z" />
    <glyph glyph-name="colon" unicode=":" horiz-adv-x="206" 
d="M156 264h-109v118h109v-118zM156 2h-109v118h109v-118z" />
    <glyph glyph-name="semicolon" unicode=";" horiz-adv-x="206" 
d="M156 264h-109v118h109v-118zM156 46q0 -48 -10.5 -75t-45.5 -59v90h-53v118h109v-74z" />
    <glyph glyph-name="less" unicode="&#x3c;" horiz-adv-x="630" 
d="M557 17l-490 229v92l490 227v-97l-363 -175l363 -179v-97z" />
    <glyph glyph-name="equal" unicode="=" horiz-adv-x="702" 
d="M622 349h-561v89h561v-89zM622 144h-561v90h561v-90z" />
    <glyph glyph-name="greater" unicode="&#x3e;" horiz-adv-x="630" 
d="M557 246l-490 -229v97l365 179l-365 175v97l490 -227v-92z" />
    <glyph glyph-name="question" unicode="?" horiz-adv-x="669" 
d="M638 489q0 -87 -51 -140q-55 -57 -155 -57h-123q-61 0 -88 -21.5t-27 -80.5v-14h-154v36q0 98 51 147q58 55 187 55h104q97 0 97 90q0 44 -27.5 61t-87.5 17h-338v118h387q96 0 139 -23q86 -46 86 -188zM194 2h-152v120h152v-120z" />
    <glyph glyph-name="at" unicode="@" horiz-adv-x="772" 
d="M737 293q0 -94 -52 -167q-61 -85 -164 -85q-33 0 -53 11q-28 16 -28 53q-40 -62 -108 -62q-124 0 -124 127q0 68 33 127q48 86 147 86q58 0 89 -48l22 38h63l-57 -243q-1 -12 7.5 -20.5t23.5 -8.5q42 0 82 44q52 57 52 146q0 102 -74 160q-69 54 -176 54
q-153 0 -245 -110q-75 -90 -75 -197q0 -137 103 -205q78 -52 183 -52q67 0 122.5 17t109.5 56l29 -43q-76 -53 -148 -73q-51 -14 -113 -14q-142 0 -242 81q-109 88 -109 233q0 155 109 260t275 105q109 0 198 -55q120 -74 120 -215zM460 267q5 20 -16 43t-48 23
q-55 0 -86 -60q-24 -47 -24 -103q0 -75 60 -75q35 0 60 26t34 63z" />
    <glyph glyph-name="A" unicode="A" horiz-adv-x="720" 
d="M717 2h-157l-65 168h-304l-61 -168h-149l290 698h151zM448 292l-106 276l-104 -276h210z" />
    <glyph glyph-name="B" unicode="B" horiz-adv-x="730" 
d="M684 196q0 -92 -38 -135q-52 -59 -193 -59h-380v698h355q121 0 176 -31q78 -44 78 -160q0 -55 -24 -90.5t-81 -67.5q57 -27 82 -62t25 -93zM528 494q0 83 -98 83h-214v-164h211q48 0 72 16q29 20 29 65zM530 206q0 85 -98 85h-216v-168h213q47 0 72 17q29 20 29 66z" />
    <glyph glyph-name="C" unicode="C" horiz-adv-x="631" 
d="M594 2h-244q-150 0 -232 78q-90 85 -90 258q0 168 68 257q80 105 258 105h240v-116h-238q-100 0 -141 -72q-31 -55 -31 -161v-35q0 -84 24 -126q40 -70 148 -70h238v-118z" />
    <glyph glyph-name="D" unicode="D" horiz-adv-x="744" 
d="M712 380q0 -229 -88 -313q-68 -65 -232 -65h-319v698h315q188 0 266 -103q58 -77 58 -217zM558 351q0 150 -53 199q-35 32 -119 32l-170 -1v-460l168 1q101 0 137.5 46t36.5 183z" />
    <glyph glyph-name="E" unicode="E" horiz-adv-x="653" 
d="M594 2h-244q-150 0 -232 78q-90 85 -90 258q0 202 87 287q76 75 239 75h240v-118h-238q-79 0 -120.5 -41.5t-41.5 -126.5h400v-119h-403q0 -97 46 -139q39 -36 119 -36h238v-118z" />
    <glyph glyph-name="F" unicode="F" horiz-adv-x="655" 
d="M627 290h-415v-288h-144v320q0 133 11 185q20 94 86 139q80 54 242 54h220v-118h-233q-96 0 -141 -49q-41 -44 -41 -126h415v-117z" />
    <glyph glyph-name="G" unicode="G" horiz-adv-x="716" 
d="M665 2h-321q-68 0 -108 10q-87 22 -139 86q-69 86 -69 240q0 162 61 249q79 113 265 113h311v-118h-311q-87 0 -126.5 -58t-39.5 -168t34 -165q40 -65 132 -65h165v167h-193v121h339v-412z" />
    <glyph glyph-name="H" unicode="H" horiz-adv-x="702" 
d="M627 2h-141v293h-270v-293h-143v698h143v-283h270v283h141v-698z" />
    <glyph glyph-name="I" unicode="I" horiz-adv-x="298" 
d="M222 2h-149v698h149v-698z" />
    <glyph glyph-name="J" unicode="J" horiz-adv-x="540" 
d="M475 284q0 -165 -69 -226q-63 -56 -220 -56h-188v112h170q94 0 127 44.5t33 157.5v384h147v-416z" />
    <glyph glyph-name="K" unicode="K" horiz-adv-x="649" 
d="M664 2h-183l-265 348v-348h-143v698h143v-336l274 336h172l-277 -342z" />
    <glyph glyph-name="L" unicode="L" horiz-adv-x="538" 
d="M530 2h-207q-147 0 -209 71q-57 65 -57 211v416h141v-384v-38q0 -76 23 -111q35 -53 137 -53h172v-112z" />
    <glyph glyph-name="M" unicode="M" horiz-adv-x="924" 
d="M850 2h-128v544l-180 -544h-152l-186 549v-549h-131v698h212l177 -543l179 543h209v-698z" />
    <glyph glyph-name="N" unicode="N" horiz-adv-x="750" 
d="M679 2h-165l-300 530v-530h-141v698h183l286 -504v504h137v-698z" />
    <glyph glyph-name="O" unicode="O" horiz-adv-x="746" 
d="M719 351q0 -198 -106 -289q-87 -75 -239 -75q-79 0 -137 18q-91 28 -143 100q-66 91 -66 248q0 150 54 236q45 71 132 102q65 23 158 23q148 0 230 -57q69 -48 97 -139q20 -66 20 -167zM564 350q0 137 -55 197q-46 50 -136 50q-89 0 -140 -61.5t-51 -182.5
q0 -115 28 -168q43 -82 163 -82q105 0 151 68q40 59 40 179z" />
    <glyph glyph-name="P" unicode="P" horiz-adv-x="716" 
d="M686 473q0 -138 -104 -193q-64 -34 -160 -34h-16t-12 1h-178v-245h-143v698h315q163 0 230.5 -54t67.5 -173zM528 473q0 59 -34.5 81.5t-108.5 22.5h-169v-208h177q135 0 135 104z" />
    <glyph glyph-name="Q" unicode="Q" horiz-adv-x="746" 
d="M760 2h-172l-22 24q-37 -13 -62 -19q-78 -19 -155 -19q-134 0 -212 62q-64 51 -90 143q-19 68 -19 161q0 153 66 243q86 116 276 116q94 0 160 -24q85 -31 132 -105q56 -88 56 -233q0 -70 -12 -124q-15 -65 -49 -123zM563 349q0 136 -56 197q-47 52 -134 52t-134 -53
q-56 -62 -56 -196q0 -113 50.5 -180t139.5 -67q109 0 154 73q36 58 36 174z" />
    <glyph glyph-name="R" unicode="R" horiz-adv-x="724" 
d="M701 2h-158l-154 274h-174v-274h-142v698h357q120 0 177 -45q64 -50 64 -165q0 -78 -31 -125q-35 -53 -107 -70zM528 488q0 51 -32 70t-102 19h-178v-180h179q70 0 94 11q39 18 39 80z" />
    <glyph glyph-name="S" unicode="S" horiz-adv-x="730" 
d="M690 210q0 -91 -39 -139q-56 -69 -202 -69h-386v122h363q57 0 83 15q32 19 32 64q0 46 -25.5 65.5t-80.5 19.5h-171q-114 0 -170 46q-60 49 -60 156q0 109 58.5 159.5t182.5 50.5h381v-122h-358q-116 0 -116 -94q0 -39 26 -58.5t69 -19.5h192q102 0 148 -27
q73 -43 73 -169z" />
    <glyph glyph-name="T" unicode="T" horiz-adv-x="598" 
d="M596 579h-223v-577h-150v577h-221v119h594v-119z" />
    <glyph glyph-name="U" unicode="U" horiz-adv-x="741" 
d="M669 276v-35q0 -103 -43 -158q-70 -89 -254 -89q-205 0 -269 101q-31 49 -31 160v445h141v-420q-1 -20 -1 -33q0 -61 24 -94q37 -51 136 -51q88 0 122 39t34 139v420h141v-424z" />
    <glyph glyph-name="V" unicode="V" horiz-adv-x="677" 
d="M708 700l-287 -698h-148l-300 698h159l211 -525l215 525h150z" />
    <glyph glyph-name="W" unicode="W" horiz-adv-x="1067" 
d="M1068 700l-212 -698h-176l-146 520h-4l-130 -520h-174l-229 698h151l159 -538h4l135 538h170l158 -545l149 545h145z" />
    <glyph glyph-name="X" unicode="X" horiz-adv-x="624" 
d="M630 2h-170l-147 243l-155 -243h-169l240 349l-232 349h167l143 -222l142 222h165l-221 -340z" />
    <glyph glyph-name="Y" unicode="Y" horiz-adv-x="598" 
d="M634 700l-264 -390v-308h-144l-1 308l-260 390h160l171 -268l173 268h165z" />
    <glyph glyph-name="Z" unicode="Z" horiz-adv-x="709" 
d="M637 2h-580v125l394 450h-394v123h580v-123l-389 -455h389v-120z" />
    <glyph glyph-name="bracketleft" unicode="[" horiz-adv-x="336" 
d="M309 -122h-234v822h234v-108h-120v-609h120v-105z" />
    <glyph glyph-name="backslash" unicode="\" horiz-adv-x="405" 
d="M406 -88h-66l-341 796h67z" />
    <glyph glyph-name="bracketright" unicode="]" horiz-adv-x="336" 
d="M259 -122h-233v105h120v609h-120v108h233v-822z" />
    <glyph glyph-name="asciicircum" unicode="^" horiz-adv-x="765" 
d="M650 431h-107l-176 174l-177 -174h-106l223 263h119z" />
    <glyph glyph-name="underscore" unicode="_" horiz-adv-x="483" 
d="M486 -170h-484v70h484v-70z" />
    <glyph glyph-name="grave" unicode="`" horiz-adv-x="333" 
d="M288 578h-63l-161 132h134z" />
    <glyph glyph-name="a" unicode="a" horiz-adv-x="613" 
d="M550 2h-358q-74 0 -115 40t-41 110q0 85 48 121.5t153 36.5h178q0 58 -25 79t-97 21h-223v103h273q82 0 125 -23q82 -44 82 -168v-320zM416 101v111h-159q-41 0 -58 -8q-25 -12 -25 -48q0 -29 19 -42t54 -13h169z" />
    <glyph glyph-name="b" unicode="b" horiz-adv-x="590" 
d="M564 263q0 -95 -46 -164q-65 -97 -201 -97h-256v698h131v-187h117q123 0 189 -64t66 -186zM426 256q0 71 -28 105q-35 43 -123 43h-83v-298h82q84 0 121 44q31 37 31 106z" />
    <glyph glyph-name="c" unicode="c" horiz-adv-x="509" 
d="M475 2h-179q-114 0 -183 55q-83 66 -83 199q0 155 95 216q63 41 171 41h179v-109h-170q-79 0 -110 -41q-27 -36 -27 -107q0 -86 44 -121q34 -27 107 -27h156v-106z" />
    <glyph glyph-name="d" unicode="d" horiz-adv-x="588" 
d="M528 2h-257q-95 0 -161 51q-86 67 -86 202q0 129 72 197q66 62 177 62h122l1 186h132v-698zM395 107v296h-72q-92 0 -126.5 -34.5t-34.5 -126.5q0 -67 26 -96q35 -39 129 -39h78z" />
    <glyph glyph-name="e" unicode="e" horiz-adv-x="509" 
d="M479 2h-194q-125 0 -190 69t-65 187q0 152 93 214q61 41 162 41h194v-103h-176q-69 0 -97 -21.5t-28 -79.5h301v-105h-303q0 -56 25.5 -78t100.5 -22h177v-102z" />
    <glyph glyph-name="f" unicode="f" horiz-adv-x="379" 
d="M370 413h-129v-411h-136v412h-95v99h95v31q0 9 -0.5 17t-0.5 15q0 56 20 82q32 42 119 42h127v-94h-54q-42 0 -59 -15t-17 -45v-33h130v-100z" />
    <glyph glyph-name="g" unicode="g" horiz-adv-x="588" 
d="M534 20q0 -101 -45 -152t-146 -51h-262v101h238q82 0 82 83h-124q-96 0 -158 43q-93 64 -93 212q0 128 68.5 192.5t196.5 64.5h243v-493zM401 104v303h-72q-95 0 -133 -42q-33 -36 -33 -113q0 -73 29 -107q35 -41 122 -41h87z" />
    <glyph glyph-name="h" unicode="h" horiz-adv-x="581" 
d="M522 2h-132v309q0 49 -19.5 69.5t-73.5 20.5h-108v-399h-128v698h128v-186h117q96 0 146 -32q70 -45 70 -156v-324z" />
    <glyph glyph-name="i" unicode="i" horiz-adv-x="257" 
d="M196 576h-135v124h135v-124zM196 2h-135v511h135v-511z" />
    <glyph glyph-name="j" unicode="j" horiz-adv-x="257" 
d="M196 576h-135v124h135v-124zM196 24q0 -105 -46.5 -156.5t-147.5 -51.5l-66 1v105h56q40 0 56 28q13 23 13 80v483h135v-489z" />
    <glyph glyph-name="k" unicode="k" horiz-adv-x="581" 
d="M579 2h-177l-207 249v-249h-131v698h131v-433l218 246h166l-233 -249z" />
    <glyph glyph-name="l" unicode="l" horiz-adv-x="253" 
d="M194 2h-135v698h135v-698z" />
    <glyph glyph-name="m" unicode="m" horiz-adv-x="847" 
d="M783 2h-130v307q0 54 -18.5 73.5t-70.5 19.5h-76v-400h-137v399h-160v-399h-130v511h512q101 0 150 -35q60 -43 60 -152v-324z" />
    <glyph glyph-name="n" unicode="n" horiz-adv-x="579" 
d="M522 2h-132v307v15q0 36 -12 51q-21 26 -79 26h-108v-399h-130v511h250q110 0 156 -35q55 -42 55 -152v-324z" />
    <glyph glyph-name="o" unicode="o" horiz-adv-x="588" 
d="M562 258q0 -122 -72.5 -194.5t-195.5 -72.5q-122 0 -195 71t-73 196q0 150 97 217q69 48 171 48q98 0 169 -50q99 -70 99 -215zM426 256q0 68 -33 111q-36 47 -98 47q-49 0 -87 -37q-46 -44 -46 -121q0 -61 34 -106q38 -51 97 -51q61 0 99 49q34 44 34 108z" />
    <glyph glyph-name="p" unicode="p" horiz-adv-x="590" 
d="M564 252q0 -122 -64 -186t-191 -64h-119v-185h-129v696h256q110 0 176 -64q71 -69 71 -197zM426 261q0 72 -24 103q-33 42 -125 42h-86v-298h51q111 0 151 41q33 34 33 112z" />
    <glyph glyph-name="q" unicode="q" horiz-adv-x="588" 
d="M528 -183h-131v185h-116q-109 0 -177 56q-79 65 -79 192q0 105 57 178q66 85 189 85h257v-696zM397 108v298h-84q-86 0 -121 -39q-30 -34 -30 -107q0 -69 29 -106q36 -46 122 -46h84z" />
    <glyph glyph-name="r" unicode="r" horiz-adv-x="455" 
d="M424 302h-124v39q0 48 -9.5 62t-37.5 14q-4 1 -12.5 1h-13.5h-20t-16 -1v-415h-130v511h224q78 0 106 -27q33 -32 33 -121v-63z" />
    <glyph glyph-name="s" unicode="s" horiz-adv-x="573" 
d="M534 170q0 -77 -36.5 -122.5t-101.5 -45.5h-343v102h281q73 0 73 54q0 52 -73 52h-117q-17 -1 -28 -1q-59 0 -92 21q-53 34 -53 121q0 162 177 162h286v-103h-258q-71 0 -71 -44v-9q4 -45 65 -45h123q75 0 115 -26q53 -35 53 -116z" />
    <glyph glyph-name="t" unicode="t" horiz-adv-x="400" 
d="M377 2h-120q-73 0 -113.5 41.5t-40.5 116.5v254h-93v99h93v187h131v-187h143v-99h-143v-210q0 -43 13.5 -71t44.5 -28h85v-103z" />
    <glyph glyph-name="u" unicode="u" horiz-adv-x="581" 
d="M516 2h-251q-107 0 -154 38q-54 43 -54 148v325h129v-315q0 -43 17 -63q21 -25 72 -25h111v403h130v-511z" />
    <glyph glyph-name="v" unicode="v" horiz-adv-x="588" 
d="M583 513l-225 -511h-139l-214 511h144l144 -371l150 371h140z" />
    <glyph glyph-name="w" unicode="w" horiz-adv-x="843" 
d="M853 513l-172 -511h-149l-113 357l-110 -357h-143l-177 511h135l113 -366l114 366h139l116 -366l112 366h135z" />
    <glyph glyph-name="x" unicode="x" horiz-adv-x="534" 
d="M531 513l-187 -259l183 -252h-153l-109 147l-107 -147h-151l184 256l-186 255h151l109 -156l114 156h152z" />
    <glyph glyph-name="y" unicode="y" horiz-adv-x="581" 
d="M516 14q0 -95 -44 -144q-47 -53 -144 -53h-262v101h237q83 0 83 84h-121q-109 0 -155 38q-53 44 -53 156v317h127v-305q0 -52 11 -69q19 -29 80 -29h111v403h130v-499z" />
    <glyph glyph-name="z" unicode="z" horiz-adv-x="564" 
d="M518 2h-473v108l300 293h-300v110h473v-111l-300 -292h300v-108z" />
    <glyph glyph-name="braceleft" unicode="{" horiz-adv-x="483" 
d="M415 -194l-48 -1q-103 0 -137 37q-30 33 -30 124v118q0 69 -23.5 94.5t-92.5 25.5h-9v98h9q65 0 90.5 24.5t25.5 97.5v118q0 86 30 120q36 41 139 41h46v-97h-43q-31 0 -46 -25t-15 -72v-114q0 -68 -19.5 -96.5t-82.5 -43.5q57 -22 66 -28q36 -25 36 -117v-114
q0 -43 13 -69t40 -26q1 -1 12 -1h39v-94z" />
    <glyph glyph-name="bar" unicode="|" horiz-adv-x="483" 
d="M289 -227h-95v971h95v-971z" />
    <glyph glyph-name="braceright" unicode="}" horiz-adv-x="483" 
d="M415 206h-9q-65 0 -90.5 -24.5t-25.5 -97.5v-118q0 -86 -30 -120q-36 -41 -139 -41h-46v97h43q31 0 46 25t15 72v114q0 68 19.5 96.5t82.5 43.5q-57 22 -66 28q-36 25 -36 117v114q0 43 -13 69t-40 26q-1 1 -12 1h-39v94l48 1q103 0 137 -37q30 -33 30 -124v-118
q0 -69 23.5 -94.5t92.5 -25.5h9v-98z" />
    <glyph glyph-name="asciitilde" unicode="~" horiz-adv-x="625" 
d="M575 654q-46 -151 -179 -151q-40 0 -116 14t-92 14q-57 0 -81 -47h-78q25 81 61 113q40 36 113 36q47 0 112 -15t98 -15q30 0 49.5 12.5t33.5 38.5h79z" />
    <glyph glyph-name="Adieresis" unicode="&#xc4;" horiz-adv-x="698" 
d="M717 2h-157l-65 168h-304l-61 -168h-149l290 698h151zM448 292l-106 276l-104 -276h210zM489 740h-111v120h111v-120zM322 740h-111v120h111v-120z" />
    <glyph glyph-name="Aring" unicode="&#xc5;" horiz-adv-x="698" 
d="M717 2h-157l-65 168h-304l-61 -168h-149l290 698h151zM448 292l-106 276l-104 -276h210zM438 828q0 -39 -26 -66t-65 -27t-66 26t-27 65t26 66t65 27t66 -26t27 -65zM391 831q0 18 -14 30t-32 12t-30 -14t-12 -32t14 -30t32 -12t30 14t12 32z" />
    <glyph glyph-name="Ccedilla" unicode="&#xc7;" horiz-adv-x="631" 
d="M594 2h-238v-22q94 0 94 -70q0 -35 -22.5 -56t-74.5 -21q-23 0 -45.5 3t-62.5 14v46q24 -6 37 -8q40 -8 57 -8q19 0 28 4q16 7 16 26q0 24 -55 24h-13v69q-132 0 -207 83q-80 88 -80 252q0 168 68 257q80 105 258 105h240v-116h-238q-100 0 -141 -72q-31 -55 -31 -161
v-35q0 -84 24 -126q40 -70 148 -70h238v-118z" />
    <glyph glyph-name="Eacute" unicode="&#xc9;" horiz-adv-x="653" 
d="M594 2h-244q-150 0 -232 78q-90 85 -90 258q0 202 87 287q76 75 239 75h240v-118h-238q-79 0 -120.5 -41.5t-41.5 -126.5h400v-119h-403q0 -97 46 -139q39 -36 119 -36h238v-118zM569 866l-162 -132h-62l90 132h134z" />
    <glyph glyph-name="Ntilde" unicode="&#xd1;" horiz-adv-x="750" 
d="M679 2h-165l-300 530v-530h-141v698h183l286 -504v504h137v-698zM528 855q-25 -107 -97 -107q-19 0 -47 6q-65 14 -66 14q-31 0 -44 -33h-42q13 55 34 80t60 25q27 0 63 -10.5t51 -10.5q31 0 45 36h43z" />
    <glyph glyph-name="Odieresis" unicode="&#xd6;" horiz-adv-x="746" 
d="M719 351q0 -198 -106 -289q-87 -75 -239 -75q-79 0 -137 18q-91 28 -143 100q-66 91 -66 248q0 150 54 236q45 71 132 102q65 23 158 23q148 0 230 -57q69 -48 97 -139q20 -66 20 -167zM564 350q0 137 -55 197q-46 50 -136 50q-89 0 -140 -61.5t-51 -182.5
q0 -115 28 -168q43 -82 163 -82q105 0 151 68q40 59 40 179zM504 741h-111v120h111v-120zM337 741h-111v120h111v-120z" />
    <glyph glyph-name="Udieresis" unicode="&#xdc;" horiz-adv-x="741" 
d="M669 276v-35q0 -103 -43 -158q-70 -89 -254 -89q-205 0 -269 101q-31 49 -31 160v445h141v-420q-1 -20 -1 -33q0 -61 24 -94q37 -51 136 -51q88 0 122 39t34 139v420h141v-424zM523 739h-111v120h111v-120zM356 739h-111v120h111v-120z" />
    <glyph glyph-name="aacute" unicode="&#xe1;" horiz-adv-x="613" 
d="M550 2h-358q-74 0 -115 40t-41 110q0 85 48 121.5t153 36.5h178q0 58 -25 79t-97 21h-223v103h273q82 0 125 -23q82 -44 82 -168v-320zM416 101v111h-159q-41 0 -58 -8q-25 -12 -25 -48q0 -29 19 -42t54 -13h169zM451 692l-162 -132h-62l90 132h134z" />
    <glyph glyph-name="agrave" unicode="&#xe0;" horiz-adv-x="613" 
d="M550 2h-358q-74 0 -115 40t-41 110q0 85 48 121.5t153 36.5h178q0 58 -25 79t-97 21h-223v103h273q82 0 125 -23q82 -44 82 -168v-320zM416 101v111h-159q-41 0 -58 -8q-25 -12 -25 -48q0 -29 19 -42t54 -13h169zM348 560h-63l-161 132h134z" />
    <glyph glyph-name="acircumflex" unicode="&#xe2;" horiz-adv-x="613" 
d="M550 2h-358q-74 0 -115 40t-41 110q0 85 48 121.5t153 36.5h178q0 58 -25 79t-97 21h-223v103h273q82 0 125 -23q82 -44 82 -168v-320zM416 101v111h-159q-41 0 -58 -8q-25 -12 -25 -48q0 -29 19 -42t54 -13h169zM435 566h-63l-83 69l-84 -69h-61l88 132h114z" />
    <glyph glyph-name="adieresis" unicode="&#xe4;" horiz-adv-x="613" 
d="M550 2h-358q-74 0 -115 40t-41 110q0 85 48 121.5t153 36.5h178q0 58 -25 79t-97 21h-223v103h273q82 0 125 -23q82 -44 82 -168v-320zM416 101v111h-159q-41 0 -58 -8q-25 -12 -25 -48q0 -29 19 -42t54 -13h169zM428 569h-111v120h111v-120zM261 569h-111v120h111v-120z
" />
    <glyph glyph-name="atilde" unicode="&#xe3;" horiz-adv-x="613" 
d="M550 2h-358q-74 0 -115 40t-41 110q0 85 48 121.5t153 36.5h178q0 58 -25 79t-97 21h-223v103h273q82 0 125 -23q82 -44 82 -168v-320zM416 101v111h-159q-41 0 -58 -8q-25 -12 -25 -48q0 -29 19 -42t54 -13h169zM441 680q-25 -107 -97 -107q-19 0 -47 6q-65 14 -66 14
q-31 0 -44 -33h-42q13 55 34 80t60 25q27 0 63 -10.5t51 -10.5q31 0 45 36h43z" />
    <glyph glyph-name="aring" unicode="&#xe5;" horiz-adv-x="613" 
d="M550 2h-358q-74 0 -115 40t-41 110q0 85 48 121.5t153 36.5h178q0 58 -25 79t-97 21h-223v103h273q82 0 125 -23q82 -44 82 -168v-320zM416 101v111h-159q-41 0 -58 -8q-25 -12 -25 -48q0 -29 19 -42t54 -13h169zM373 648q0 -39 -26 -66t-65 -27t-66 26t-27 65t26 66
t65 27t66 -26t27 -65zM326 651q0 18 -14 30t-32 12t-30 -14t-12 -32t14 -30t32 -12t30 14t12 32z" />
    <glyph glyph-name="ccedilla" unicode="&#xe7;" horiz-adv-x="509" 
d="M475 2h-154v-17q75 0 75 -54q0 -28 -18 -44t-59 -16q-28 0 -46 3q-26 7 -40 10v36q11 -3 18 -4q42 -9 57 -9q14 0 21 3q13 6 13 21q0 18 -43 18h-10v53q-110 0 -178 56q-81 67 -81 198q0 155 95 216q63 41 171 41h179v-109h-170q-79 0 -110 -41q-27 -36 -27 -107
q0 -86 44 -121q34 -27 107 -27h156v-106z" />
    <glyph glyph-name="eacute" unicode="&#xe9;" horiz-adv-x="509" 
d="M479 2h-194q-125 0 -190 69t-65 187q0 152 93 214q61 41 162 41h194v-103h-176q-69 0 -97 -21.5t-28 -79.5h301v-105h-303q0 -56 25.5 -78t100.5 -22h177v-102zM484 701l-162 -132h-62l90 132h134z" />
    <glyph glyph-name="egrave" unicode="&#xe8;" horiz-adv-x="509" 
d="M479 2h-194q-125 0 -190 69t-65 187q0 152 93 214q61 41 162 41h194v-103h-176q-69 0 -97 -21.5t-28 -79.5h301v-105h-303q0 -56 25.5 -78t100.5 -22h177v-102zM366 566h-63l-161 132h134z" />
    <glyph glyph-name="ecircumflex" unicode="&#xea;" horiz-adv-x="509" 
d="M479 2h-194q-125 0 -190 69t-65 187q0 152 93 214q61 41 162 41h194v-103h-176q-69 0 -97 -21.5t-28 -79.5h301v-105h-303q0 -56 25.5 -78t100.5 -22h177v-102zM452 570h-63l-83 69l-84 -69h-61l88 132h114z" />
    <glyph glyph-name="edieresis" unicode="&#xeb;" horiz-adv-x="509" 
d="M479 2h-194q-125 0 -190 69t-65 187q0 152 93 214q61 41 162 41h194v-103h-176q-69 0 -97 -21.5t-28 -79.5h301v-105h-303q0 -56 25.5 -78t100.5 -22h177v-102zM423 578h-111v120h111v-120zM256 578h-111v120h111v-120z" />
    <glyph glyph-name="iacute" unicode="&#xed;" horiz-adv-x="257" 
d="M196 2h-135v511h135v-511zM290 693l-162 -132h-62l90 132h134z" />
    <glyph glyph-name="igrave" unicode="&#xec;" horiz-adv-x="257" 
d="M196 2h-135v511h135v-511zM182 556h-63l-161 132h134z" />
    <glyph glyph-name="icircumflex" unicode="&#xee;" horiz-adv-x="257" 
d="M196 2h-135v511h135v-511zM277 564h-63l-83 69l-84 -69h-61l88 132h114z" />
    <glyph glyph-name="idieresis" unicode="&#xef;" horiz-adv-x="257" 
d="M196 2h-135v511h135v-511zM267 563h-111v120h111v-120zM100 563h-111v120h111v-120z" />
    <glyph glyph-name="ntilde" unicode="&#xf1;" horiz-adv-x="579" 
d="M522 2h-132v307v15q0 36 -12 51q-21 26 -79 26h-108v-399h-130v511h250q110 0 156 -35q55 -42 55 -152v-324zM432 677q-25 -107 -97 -107q-19 0 -47 6q-65 14 -66 14q-31 0 -44 -33h-42q13 55 34 80t60 25q27 0 63 -10.5t51 -10.5q31 0 45 36h43z" />
    <glyph glyph-name="oacute" unicode="&#xf3;" horiz-adv-x="588" 
d="M562 258q0 -122 -72.5 -194.5t-195.5 -72.5q-122 0 -195 71t-73 196q0 150 97 217q69 48 171 48q98 0 169 -50q99 -70 99 -215zM426 256q0 68 -33 111q-36 47 -98 47q-49 0 -87 -37q-46 -44 -46 -121q0 -61 34 -106q38 -51 97 -51q61 0 99 49q34 44 34 108zM505 704
l-162 -132h-62l90 132h134z" />
    <glyph glyph-name="ograve" unicode="&#xf2;" horiz-adv-x="588" 
d="M562 258q0 -122 -72.5 -194.5t-195.5 -72.5q-122 0 -195 71t-73 196q0 150 97 217q69 48 171 48q98 0 169 -50q99 -70 99 -215zM426 256q0 68 -33 111q-36 47 -98 47q-49 0 -87 -37q-46 -44 -46 -121q0 -61 34 -106q38 -51 97 -51q61 0 99 49q34 44 34 108zM297 569h-63
l-161 132h134z" />
    <glyph glyph-name="ocircumflex" unicode="&#xf4;" horiz-adv-x="588" 
d="M562 258q0 -122 -72.5 -194.5t-195.5 -72.5q-122 0 -195 71t-73 196q0 150 97 217q69 48 171 48q98 0 169 -50q99 -70 99 -215zM426 256q0 68 -33 111q-36 47 -98 47q-49 0 -87 -37q-46 -44 -46 -121q0 -61 34 -106q38 -51 97 -51q61 0 99 49q34 44 34 108zM450 572h-63
l-83 69l-84 -69h-61l88 132h114z" />
    <glyph glyph-name="odieresis" unicode="&#xf6;" horiz-adv-x="588" 
d="M562 258q0 -122 -72.5 -194.5t-195.5 -72.5q-122 0 -195 71t-73 196q0 150 97 217q69 48 171 48q98 0 169 -50q99 -70 99 -215zM426 256q0 68 -33 111q-36 47 -98 47q-49 0 -87 -37q-46 -44 -46 -121q0 -61 34 -106q38 -51 97 -51q61 0 99 49q34 44 34 108zM434 569h-111
v120h111v-120zM267 569h-111v120h111v-120z" />
    <glyph glyph-name="otilde" unicode="&#xf5;" horiz-adv-x="588" 
d="M562 258q0 -122 -72.5 -194.5t-195.5 -72.5q-122 0 -195 71t-73 196q0 150 97 217q69 48 171 48q98 0 169 -50q99 -70 99 -215zM426 256q0 68 -33 111q-36 47 -98 47q-49 0 -87 -37q-46 -44 -46 -121q0 -61 34 -106q38 -51 97 -51q61 0 99 49q34 44 34 108zM444 689
q-25 -107 -97 -107q-19 0 -47 6q-65 14 -66 14q-31 0 -44 -33h-42q13 55 34 80t60 25q27 0 63 -10.5t51 -10.5q31 0 45 36h43z" />
    <glyph glyph-name="uacute" unicode="&#xfa;" horiz-adv-x="581" 
d="M516 2h-251q-107 0 -154 38q-54 43 -54 148v325h129v-315q0 -43 17 -63q21 -25 72 -25h111v403h130v-511zM499 707l-162 -132h-62l90 132h134z" />
    <glyph glyph-name="ugrave" unicode="&#xf9;" horiz-adv-x="581" 
d="M516 2h-251q-107 0 -154 38q-54 43 -54 148v325h129v-315q0 -43 17 -63q21 -25 72 -25h111v403h130v-511zM306 575h-63l-161 132h134z" />
    <glyph glyph-name="ucircumflex" unicode="&#xfb;" horiz-adv-x="581" 
d="M516 2h-251q-107 0 -154 38q-54 43 -54 148v325h129v-315q0 -43 17 -63q21 -25 72 -25h111v403h130v-511zM432 566h-63l-83 69l-84 -69h-61l88 132h114z" />
    <glyph glyph-name="udieresis" unicode="&#xfc;" horiz-adv-x="581" 
d="M516 2h-251q-107 0 -154 38q-54 43 -54 148v325h129v-315q0 -43 17 -63q21 -25 72 -25h111v403h130v-511zM419 572h-111v120h111v-120zM252 572h-111v120h111v-120z" />
    <glyph glyph-name="dagger" unicode="&#x2020;" horiz-adv-x="483" 
d="M454 387h-142v-477h-141v477h-141v118h141v195h141v-195h142v-118z" />
    <glyph glyph-name="degree" unicode="&#xb0;" horiz-adv-x="339" 
d="M287 599q0 -50 -32.5 -85.5t-80.5 -35.5q-50 0 -85.5 32.5t-35.5 80.5q0 50 32.5 85.5t80.5 35.5q50 0 85.5 -32.5t35.5 -80.5zM243 597q0 30 -22.5 50.5t-54.5 20.5q-30 0 -50.5 -22.5t-20.5 -54.5q0 -30 22.5 -50.5t54.5 -20.5q30 0 50.5 22.5t20.5 54.5z" />
    <glyph glyph-name="cent" unicode="&#xa2;" horiz-adv-x="396" 
d="M378 146h-102v-60h-53v60q-30 0 -53 5q-62 13 -100 52q-54 55 -54 153q0 118 69 171q52 40 138 40v61h53v-61h102v-87h-102v-247h102v-87zM223 233v247q-51 -6 -74 -35t-23 -89q0 -51 20 -79q24 -33 77 -44z" />
    <glyph glyph-name="sterling" unicode="&#xa3;" horiz-adv-x="658" 
d="M631 2h-603v116h124v187h-124v98h125v119q0 87 54 131q58 47 178 47h188v-118h-164q-68 0 -94 -26q-21 -21 -21 -70v-83h169v-98h-168v-186h336v-117z" />
    <glyph glyph-name="section" unicode="&#xa7;" horiz-adv-x="483" 
d="M465 80q0 -79 -46.5 -124.5t-141.5 -45.5h-228v110h193q87 0 87 61q0 25 -19 41t-46 16h-65q-100 0 -145 41q-39 35 -39 102q0 36 11 60q15 33 52 50q-61 44 -61 139q0 71 41 116q50 54 148 54h220v-112h-186q-43 0 -65 -13.5t-22 -48.5q0 -55 66 -55h53q115 0 160 -44
q33 -33 33 -96q0 -67 -57 -111q34 -23 48 -69q9 -30 9 -71zM342 318q0 24 -25 34.5t-59 10.5q-6 1 -18 1q-39 0 -67.5 -20.5t-28.5 -47.5q0 -30 38 -41q25 -7 74 -7q86 0 86 70z" />
    <glyph glyph-name="bullet" unicode="&#x2022;" horiz-adv-x="190" 
d="M166 369q0 -29 -20 -50t-50 -21q-29 0 -50 21t-21 50t21 50t50 21q28 0 49 -21t21 -50z" />
    <glyph glyph-name="paragraph" unicode="&#xb6;" horiz-adv-x="483" 
d="M461 653h-51v-651h-69v651h-78v-651h-70v373q-88 10 -130 51t-42 114q0 82 56 125q50 39 127 39h257v-51z" />
    <glyph glyph-name="germandbls" unicode="&#xdf;" horiz-adv-x="665" 
d="M614 168q0 -73 -31 -115q-38 -51 -116 -51h-174v102h114q37 0 57 12q24 15 24 47q0 31 -20 49q-11 9 -50 27l-107 50q-23 12 -32.5 31t-9.5 42q0 41 21 63q12 12 51 35l65 40q19 12 22 15q11 12 11 33q0 31 -14 43t-49 12l-59 3q-76 0 -76 -51v-553h-136v414h-95v97h95
v31q-1 21 -1 33q0 56 20 82q32 41 119 41h139q76 0 116 -22q63 -34 63 -124q0 -35 -10.5 -59t-38.5 -43l-106 -63q-7 -4 -13.5 -8t-4.5 -9q3 -8 20 -15l94 -41q62 -28 87 -61t25 -87z" />
    <glyph glyph-name="registered" unicode="&#xae;" horiz-adv-x="803" 
d="M750 349q0 -136 -97 -240q-103 -111 -251 -111q-146 0 -246.5 105.5t-100.5 245.5q0 175 121 274q99 81 226 81q60 0 130 -28q92 -37 147 -106q71 -90 71 -221zM698 346q0 128 -86 215t-208 87q-119 0 -208 -87t-89 -210q0 -135 102 -222q88 -75 187 -75
q123 0 212.5 87.5t89.5 204.5zM574 162h-101l-74 160h-51v-160h-89v389h150q69 0 110 -20q55 -27 55 -88q0 -78 -86 -106zM479 438q0 32 -25 45t-68 13h-37v-118h37q45 0 66 11q27 14 27 49z" />
    <glyph glyph-name="copyright" unicode="&#xa9;" horiz-adv-x="803" 
d="M750 349q0 -138 -97 -242q-102 -109 -251 -109q-156 0 -257 119q-90 106 -90 232q0 55 28 127q37 95 105 153q88 75 214 75q153 0 254 -110q94 -103 94 -245zM698 351q0 115 -85 204q-89 93 -209 93q-115 0 -204 -85q-93 -89 -93 -212q0 -120 85.5 -208.5t211.5 -88.5
q116 0 202 80q92 86 92 217zM575 282q-7 -60 -46 -98q-46 -44 -126 -44q-89 0 -138.5 58t-49.5 156q0 83 50 142q55 65 142 65q64 0 109 -35t54 -96h-85q-4 31 -27.5 51.5t-51.5 20.5q-46 0 -72.5 -39.5t-26.5 -111.5q0 -63 21 -101q25 -44 72 -44q76 0 89 76h86z" />
    <glyph glyph-name="trademark" unicode="&#x2122;" horiz-adv-x="803" 
d="M679 439h-58v192l-4 1l-75 -193h-23l-76 193l-4 -1v-192h-58v257h88l64 -162l57 162h89v-257zM324 645h-79v-206h-65v206h-80v51h224v-51z" />
    <glyph glyph-name="acute" unicode="&#xb4;" horiz-adv-x="333" 
d="M274 719l-162 -132h-62l90 132h134z" />
    <glyph glyph-name="dieresis" unicode="&#xa8;" horiz-adv-x="483" 
d="M380 584h-111v120h111v-120zM213 584h-111v120h111v-120z" />
    <glyph glyph-name="AE" unicode="&#xc6;" horiz-adv-x="1078" 
d="M1020 2h-234q-127 0 -176 27q-55 30 -113 141h-304l-61 -168h-149l290 698h155l64 -173q45 94 108 132q68 41 190 41h230v-118h-237q-165 0 -165 -167l402 1v-120l-402 -1q0 -82 29 -122q38 -53 136 -53h237v-118zM463 292l-98 271h-23l-100 -271h221z" />
    <glyph glyph-name="Oslash" unicode="&#xd8;" horiz-adv-x="746" 
d="M719 351q0 -198 -106 -289q-87 -75 -239 -75q-62 0 -108 10q-72 16 -123 57l-52 -62l-79 -1l87 106q-34 44 -52.5 105.5t-18.5 150.5q0 150 54 236q45 71 132 102q65 23 158 23q68 0 115.5 -10t87.5 -31l35 42l86 2l-67 -82q54 -49 75 -132q15 -59 15 -152zM487 566
q-23 16 -52 23.5t-62 7.5q-89 0 -140 -61.5t-51 -182.5q0 -56 3.5 -82.5t12.5 -53.5zM564 350q0 108 -34 167l-301 -360q23 -26 57.5 -40t86.5 -14q105 0 151 68q40 59 40 179z" />
    <glyph glyph-name="plusminus" unicode="&#xb1;" horiz-adv-x="803" 
d="M682 335h-232v-155h-95v155h-234v92h234v155h95v-155h232v-92zM682 2h-561v90h561v-90z" />
    <glyph glyph-name="yen" unicode="&#xa5;" horiz-adv-x="598" 
d="M634 700l-160 -238h118v-56h-156l-45 -64h201v-57h-221v-283h-146v283h-215v57h196l-42 64h-154v56h115l-160 238h160l171 -268l173 268h165z" />
    <glyph glyph-name="mu" unicode="&#xb5;" horiz-adv-x="588" 
d="M556 518l-91 -516l-123 1l9 53l-4 1q-17 -35 -38 -50q-26 -19 -65 -19h-5q-32 0 -54 15q-16 11 -39 40l-43 -249h-129l125 724h131l-36 -206q-3 -15 -6.5 -48t-3.5 -46q0 -53 14 -83q18 -39 59 -39q55 0 88 57q25 44 36 121l44 244h131z" />
    <glyph glyph-name="ordfeminine" unicode="&#xaa;" horiz-adv-x="461" 
d="M413 344h-270q-54 0 -84.5 29.5t-30.5 84.5q0 46 29 71q35 30 121 30h134q0 40 -21.5 55.5t-71.5 15.5h-166v70h206q70 0 107 -26q47 -33 47 -108v-222zM312 412v78h-120q-33 0 -47.5 -7.5t-14.5 -32.5q0 -21 15.5 -29.5t38.5 -8.5h128z" />
    <glyph glyph-name="ordmasculine" unicode="&#xba;" horiz-adv-x="441" 
d="M421 522q0 -79 -47 -129q-53 -57 -153 -57q-87 0 -143 46t-56 111q0 112 55 165q50 48 144 48q83 0 138 -44q62 -50 62 -140zM321 521q0 47 -27.5 79.5t-70.5 32.5q-46 0 -74 -29t-28 -84q0 -49 29.5 -79.5t69.5 -30.5q46 0 73.5 30.5t27.5 80.5z" />
    <glyph glyph-name="ae" unicode="&#xe6;" horiz-adv-x="900" 
d="M851 5h-194q-30 0 -56.5 4.5t-50.5 14.5v-22h-358q-74 0 -115 40t-41 110q0 85 48 121.5t153 36.5h178q0 58 -25 79t-97 21h-223v103h273q45 0 70 -5q47 -9 79 -37q37 26 78 35.5t87 9.5h194v-103h-176q-69 0 -97 -21.5t-28 -79.5h301v-105h-303q0 -56 25.5 -78
t100.5 -22h177v-102zM416 101v111h-159q-41 0 -58 -8q-25 -12 -25 -48q0 -29 19 -42t54 -13h169z" />
    <glyph glyph-name="oslash" unicode="&#xf8;" horiz-adv-x="590" 
d="M562 252q0 -105 -59 -174q-72 -85 -216 -85q-38 0 -70 8.5t-68 26.5l-30 -34h-81l61 70l-46 68q-28 54 -28 125q0 141 98 211q73 52 165 52q56 0 82 -4.5t73 -30.5l30 35h82l-60 -74q67 -83 67 -194zM373 399q-29 13 -37 16q-20 7 -43 7q-59 0 -98.5 -42.5t-39.5 -113.5
q0 -53 24 -101zM432 255q0 39 -17 93l-194 -232q17 -11 35.5 -17t40.5 -6q48 0 83 29q52 43 52 133z" />
    <glyph glyph-name="questiondown" unicode="&#xbf;" horiz-adv-x="669" 
d="M622 580h-152v120h152v-120zM638 2h-387q-96 0 -139 23q-86 46 -86 188q0 87 51 140q55 57 155 57h123q61 0 86 20q29 23 29 82v14h154v-36q0 -98 -51 -147q-58 -55 -187 -55h-104q-97 0 -97 -90q0 -44 27.5 -61t87.5 -17h338v-118z" />
    <glyph glyph-name="exclamdown" unicode="&#xa1;" horiz-adv-x="302" 
d="M222 578h-143v122h143v-122zM220 2h-141v516h141v-516z" />
    <glyph glyph-name="logicalnot" unicode="&#xac;" horiz-adv-x="600" 
d="M343 38v124h39q48 0 62 9.5t14 37.5q1 4 1 12.5v13.5v20t-1 16h-415v130h511v-224q0 -78 -27 -106q-32 -33 -121 -33h-63z" />
    <glyph glyph-name="florin" unicode="&#x192;" horiz-adv-x="746" 
d="M600 592h-51q-47 0 -59 -8t-19 -42l-23 -114h118v-113h-141l-65 -336q-20 -102 -73 -132q-33 -19 -123 -19h-61v110h69q16 0 31 19.5t23 60.5l60 297h-103v113h125l28 138q14 70 33 93q34 41 118 41h112z" />
    <glyph glyph-name="guillemotleft" unicode="&#xab;" horiz-adv-x="609" 
d="M560 426l-169 -168l163 -168h-141l-156 168l164 168h139zM330 426l-167 -168l163 -168h-144l-156 168l164 168h140z" />
    <glyph glyph-name="guillemotright" unicode="&#xbb;" horiz-adv-x="609" 
d="M562 258l-164 -168h-139l168 168l-162 168h142zM332 258l-164 -168h-140l169 168l-163 168h142z" />
    <glyph glyph-name="ellipsis" unicode="&#x2026;" horiz-adv-x="965" 
d="M858 2h-112v118h112v-118zM536 2h-111v118h111v-118zM215 2h-112v118h112v-118z" />
    <glyph glyph-name="nonbreakingspace" unicode="&#xa0;" horiz-adv-x="300" 
 />
    <glyph glyph-name="Agrave" unicode="&#xc0;" horiz-adv-x="698" 
d="M717 2h-157l-65 168h-304l-61 -168h-149l290 698h151zM448 292l-106 276l-104 -276h210zM372 743h-63l-161 132h134z" />
    <glyph glyph-name="Atilde" unicode="&#xc3;" horiz-adv-x="698" 
d="M717 2h-157l-65 168h-304l-61 -168h-149l290 698h151zM448 292l-106 276l-104 -276h210zM490 858q-25 -107 -97 -107q-19 0 -47 6q-65 14 -66 14q-31 0 -44 -33h-42q13 55 34 80t60 25q27 0 63 -10.5t51 -10.5q31 0 45 36h43z" />
    <glyph glyph-name="Otilde" unicode="&#xd5;" horiz-adv-x="746" 
d="M719 351q0 -198 -106 -289q-87 -75 -239 -75q-79 0 -137 18q-91 28 -143 100q-66 91 -66 248q0 150 54 236q45 71 132 102q65 23 158 23q148 0 230 -57q69 -48 97 -139q20 -66 20 -167zM564 350q0 137 -55 197q-46 50 -136 50q-89 0 -140 -61.5t-51 -182.5
q0 -115 28 -168q43 -82 163 -82q105 0 151 68q40 59 40 179zM512 858q-25 -107 -97 -107q-19 0 -47 6q-65 14 -66 14q-31 0 -44 -33h-42q13 55 34 80t60 25q27 0 63 -10.5t51 -10.5q31 0 45 36h43z" />
    <glyph glyph-name="OE" unicode="&#x152;" horiz-adv-x="1182" 
d="M1110 5h-244q-75 0 -133 19.5t-101 61.5q-45 -51 -112.5 -75t-145.5 -24q-79 0 -137 18q-91 28 -143 100q-66 91 -66 248q0 150 54 236q45 71 132 102q65 23 158 23t158.5 -21t106.5 -61q41 37 100.5 54t132.5 17h240v-118h-238q-79 0 -120.5 -41.5t-41.5 -126.5h400
v-119h-403q0 -97 46 -139q39 -36 119 -36h238v-118zM564 350q0 137 -55 197q-46 50 -136 50q-89 0 -140 -61.5t-51 -182.5q0 -115 28 -168q43 -82 163 -82q105 0 151 68q40 59 40 179z" />
    <glyph glyph-name="oe" unicode="&#x153;" horiz-adv-x="927" 
d="M860 2h-194q-59 0 -103 15t-78 45q-69 -71 -191 -71q-140 0 -211 91q-57 73 -57 176q0 120 75.5 192.5t192.5 72.5q50 0 94 -13q56 -17 97 -54q37 33 91 47q39 10 90 10h194v-103h-176q-69 0 -97 -21.5t-28 -79.5h301v-105h-303q0 -56 25.5 -78t100.5 -22h177v-102z
M426 256q0 68 -33 111q-36 47 -98 47q-49 0 -87 -37q-46 -44 -46 -121q0 -61 34 -106q38 -51 97 -51q61 0 99 49q34 44 34 108z" />
    <glyph glyph-name="endash" unicode="&#x2013;" horiz-adv-x="483" 
d="M481 204h-479v118h479v-118z" />
    <glyph glyph-name="emdash" unicode="&#x2014;" horiz-adv-x="965" 
d="M964 322l-1 -118h-961v118h962z" />
    <glyph glyph-name="quotedblleft" unicode="&#x201c;" horiz-adv-x="358" 
d="M318 584h-53v-90q-36 35 -47.5 64t-11.5 78v66h112v-118zM150 580h-53v-90q-36 35 -47.5 64t-11.5 78v66h112v-118z" />
    <glyph glyph-name="quotedblright" unicode="&#x201d;" horiz-adv-x="358" 
d="M318 632q0 -52 -10.5 -79t-48.5 -63v90h-53v118h112v-66zM150 636q0 -52 -10.5 -79t-48.5 -63v90h-53v118h112v-66z" />
    <glyph glyph-name="quoteleft" unicode="&#x2018;" horiz-adv-x="207" 
d="M150 580h-53v-90q-36 35 -47.5 64t-11.5 78v66h112v-118z" />
    <glyph glyph-name="quoteright" unicode="&#x2019;" horiz-adv-x="207" 
d="M150 632q0 -52 -10.5 -79t-48.5 -63v90h-53v118h112v-66z" />
    <glyph glyph-name="divide" unicode="&#xf7;" horiz-adv-x="803" 
d="M459 372h-111v118h111v-118zM681 246h-560v92h560v-92zM457 94h-111v118h111v-118z" />
    <glyph glyph-name="ydieresis" unicode="&#xff;" horiz-adv-x="581" 
d="M516 14q0 -95 -44 -144q-47 -53 -144 -53h-262v101h237q83 0 83 84h-121q-109 0 -155 38q-53 44 -53 156v317h127v-305q0 -52 11 -69q19 -29 80 -29h111v403h130v-499zM420 568h-111v120h111v-120zM253 568h-111v120h111v-120z" />
    <glyph glyph-name="Ydieresis" unicode="&#x178;" horiz-adv-x="598" 
d="M416 749h-102v110h102v-110zM262 749h-101v110h101v-110zM634 700l-264 -390v-308h-144l-1 308l-260 390h160l171 -268l173 268h165z" />
    <glyph glyph-name="uni2215" unicode="&#x2215;" horiz-adv-x="162" 
d="M248 698l-267 -696h-69l270 696h66z" />
    <glyph glyph-name="currency" unicode="&#xa4;" horiz-adv-x="584" 
d="M552 210l-47 -50l-96 97q-52 -35 -116 -35t-115 35l-97 -97l-47 50l95 97q-14 22 -22 43q-13 35 -13 73q0 62 35 115l-95 97l47 48l97 -94q54 34 115 34q60 0 116 -34l96 94l47 -48l-94 -97q33 -53 33 -116q0 -61 -33 -115zM426 422q0 55 -38 94t-94 39
q-51 0 -91.5 -38.5t-40.5 -94.5q0 -52 39 -92t93 -40q50 0 91 39t41 93z" />
    <glyph glyph-name="guilsinglleft" unicode="&#x2039;" horiz-adv-x="384" 
d="M330 426l-167 -168l163 -168h-144l-156 168l164 168h140z" />
    <glyph glyph-name="guilsinglright" unicode="&#x203a;" horiz-adv-x="384" 
d="M332 258l-164 -168h-140l167 168l-163 168h144z" />
    <glyph glyph-name="fi" unicode="&#xf001;" horiz-adv-x="615" 
d="M556 579h-135v125h135v-125zM556 5h-135v408h-180v-411h-136v412h-95v99h95v31q0 9 -0.5 17t-0.5 15q0 56 20 82q32 42 119 42h124v-94h-51q-42 0 -59 -15t-17 -45v-33h316v-508z" />
    <glyph glyph-name="fl" unicode="&#xf002;" horiz-adv-x="624" 
d="M554 5h-135v601h-103q-42 0 -59 -15t-17 -45v-33h130v-100h-129v-411h-136v412h-95v99h95v31q0 9 -0.5 17t-0.5 15q0 56 20 82q32 42 119 42h176l135 3v-698z" />
    <glyph glyph-name="daggerdbl" unicode="&#x2021;" horiz-adv-x="483" 
d="M453 111h-141v-201h-141v201h-141v118h141v168h-141v117h141v186h141v-186h141v-117h-141v-168h141v-118z" />
    <glyph glyph-name="periodcentered" unicode="&#xb7;" horiz-adv-x="211" 
d="M143 319q0 -16 -11.5 -27.5t-27.5 -11.5t-27 11t-11 28t11 28t27 11t27.5 -11.5t11.5 -27.5z" />
    <glyph glyph-name="quotesinglbase" unicode="&#x201a;" horiz-adv-x="207" 
d="M152 54q0 -52 -10.5 -79t-48.5 -63v90h-53v118h112v-66z" />
    <glyph glyph-name="quotedblbase" unicode="&#x201e;" horiz-adv-x="338" 
d="M317 54q0 -52 -10.5 -79t-48.5 -63v90h-53v118h112v-66zM152 54q0 -52 -10.5 -79t-48.5 -63v90h-53v118h112v-66z" />
    <glyph glyph-name="perthousand" unicode="&#x2030;" horiz-adv-x="1240" 
d="M1203 188q0 -112 -55 -159q-42 -36 -123 -36t-123 36q-55 47 -55 159q0 108 51 155q44 40 127 40q101 0 143 -57q35 -47 35 -138zM812 188q0 -112 -55 -159q-42 -36 -123 -36t-123 36q-55 47 -55 159q0 108 51 155q44 40 127 40q101 0 143 -57q35 -47 35 -138zM590 698
l-269 -696h-71l270 696h70zM384 513q0 -113 -54 -159q-42 -36 -123 -36t-123 36q-56 48 -56 159q0 108 51 155q44 40 128 40q100 0 142 -57q35 -48 35 -138zM1128 186q0 72 -31 106q-26 28 -69 28q-47 0 -71 -27q-30 -33 -30 -107q0 -134 101 -134q100 0 100 134zM737 186
q0 72 -31 106q-26 28 -69 28q-47 0 -71 -27q-30 -33 -30 -107q0 -134 101 -134q100 0 100 134zM307 513q0 72 -31 106q-26 28 -69 28q-47 0 -71 -27q-30 -33 -30 -107q0 -134 101 -134q100 0 100 134z" />
    <glyph glyph-name="Acircumflex" unicode="&#xc2;" horiz-adv-x="698" 
d="M717 2h-157l-65 168h-304l-61 -168h-149l290 698h151zM448 292l-106 276l-104 -276h210zM492 737h-63l-83 69l-84 -69h-61l88 132h114z" />
    <glyph glyph-name="Ecircumflex" unicode="&#xca;" horiz-adv-x="653" 
d="M594 2h-244q-150 0 -232 78q-90 85 -90 258q0 202 87 287q76 75 239 75h240v-118h-238q-79 0 -120.5 -41.5t-41.5 -126.5h400v-119h-403q0 -97 46 -139q39 -36 119 -36h238v-118zM524 734h-63l-83 69l-84 -69h-61l88 132h114z" />
    <glyph glyph-name="Aacute" unicode="&#xc1;" horiz-adv-x="698" 
d="M717 2h-157l-65 168h-304l-61 -168h-149l290 698h151zM448 292l-106 276l-104 -276h210zM555 882l-162 -132h-62l90 132h134z" />
    <glyph glyph-name="Edieresis" unicode="&#xcb;" horiz-adv-x="653" 
d="M594 2h-244q-150 0 -232 78q-90 85 -90 258q0 202 87 287q76 75 239 75h240v-118h-238q-79 0 -120.5 -41.5t-41.5 -126.5h400v-119h-403q0 -97 46 -139q39 -36 119 -36h238v-118zM507 742h-111v120h111v-120zM340 742h-111v120h111v-120z" />
    <glyph glyph-name="Egrave" unicode="&#xc8;" horiz-adv-x="653" 
d="M594 2h-244q-150 0 -232 78q-90 85 -90 258q0 202 87 287q76 75 239 75h240v-118h-238q-79 0 -120.5 -41.5t-41.5 -126.5h400v-119h-403q0 -97 46 -139q39 -36 119 -36h238v-118zM453 739h-63l-161 132h134z" />
    <glyph glyph-name="Iacute" unicode="&#xcd;" horiz-adv-x="298" 
d="M222 2h-149v698h149v-698zM302 871l-162 -132h-62l90 132h134z" />
    <glyph glyph-name="Icircumflex" unicode="&#xce;" horiz-adv-x="298" 
d="M222 2h-149v698h149v-698zM292 736h-63l-83 69l-84 -69h-61l88 132h114z" />
    <glyph glyph-name="Idieresis" unicode="&#xcf;" horiz-adv-x="298" 
d="M222 2h-149v698h149v-698zM283 742h-111v120h111v-120zM116 742h-111v120h111v-120z" />
    <glyph glyph-name="Igrave" unicode="&#xcc;" horiz-adv-x="298" 
d="M222 2h-149v698h149v-698zM206 735h-63l-161 132h134z" />
    <glyph glyph-name="Oacute" unicode="&#xd3;" horiz-adv-x="746" 
d="M719 351q0 -198 -106 -289q-87 -75 -239 -75q-79 0 -137 18q-91 28 -143 100q-66 91 -66 248q0 150 54 236q45 71 132 102q65 23 158 23q148 0 230 -57q69 -48 97 -139q20 -66 20 -167zM564 350q0 137 -55 197q-46 50 -136 50q-89 0 -140 -61.5t-51 -182.5
q0 -115 28 -168q43 -82 163 -82q105 0 151 68q40 59 40 179zM535 870l-162 -132h-62l90 132h134z" />
    <glyph glyph-name="Ocircumflex" unicode="&#xd4;" horiz-adv-x="746" 
d="M719 351q0 -198 -106 -289q-87 -75 -239 -75q-79 0 -137 18q-91 28 -143 100q-66 91 -66 248q0 150 54 236q45 71 132 102q65 23 158 23q148 0 230 -57q69 -48 97 -139q20 -66 20 -167zM564 350q0 137 -55 197q-46 50 -136 50q-89 0 -140 -61.5t-51 -182.5
q0 -115 28 -168q43 -82 163 -82q105 0 151 68q40 59 40 179zM505 736h-63l-83 69l-84 -69h-61l88 132h114z" />
    <glyph glyph-name="Ograve" unicode="&#xd2;" horiz-adv-x="746" 
d="M719 351q0 -198 -106 -289q-87 -75 -239 -75q-79 0 -137 18q-91 28 -143 100q-66 91 -66 248q0 150 54 236q45 71 132 102q65 23 158 23q148 0 230 -57q69 -48 97 -139q20 -66 20 -167zM564 350q0 137 -55 197q-46 50 -136 50q-89 0 -140 -61.5t-51 -182.5
q0 -115 28 -168q43 -82 163 -82q105 0 151 68q40 59 40 179zM410 741h-63l-161 132h134z" />
    <glyph glyph-name="Uacute" unicode="&#xda;" horiz-adv-x="741" 
d="M669 276v-35q0 -103 -43 -158q-70 -89 -254 -89q-205 0 -269 101q-31 49 -31 160v445h141v-420q-1 -20 -1 -33q0 -61 24 -94q37 -51 136 -51q88 0 122 39t34 139v420h141v-424zM558 872l-162 -132h-62l90 132h134z" />
    <glyph glyph-name="Ucircumflex" unicode="&#xdb;" horiz-adv-x="741" 
d="M669 276v-35q0 -103 -43 -158q-70 -89 -254 -89q-205 0 -269 101q-31 49 -31 160v445h141v-420q-1 -20 -1 -33q0 -61 24 -94q37 -51 136 -51q88 0 122 39t34 139v420h141v-424zM523 735h-63l-83 69l-84 -69h-61l88 132h114z" />
    <glyph glyph-name="Ugrave" unicode="&#xd9;" horiz-adv-x="741" 
d="M669 276v-35q0 -103 -43 -158q-70 -89 -254 -89q-205 0 -269 101q-31 49 -31 160v445h141v-420q-1 -20 -1 -33q0 -61 24 -94q37 -51 136 -51q88 0 122 39t34 139v420h141v-424zM428 736h-63l-161 132h134z" />
    <glyph glyph-name="dotlessi" unicode="&#x131;" horiz-adv-x="257" 
d="M196 2h-135v511h135v-511z" />
    <glyph glyph-name="circumflex" unicode="&#x2c6;" horiz-adv-x="483" 
d="M387 578h-63l-83 69l-84 -69h-61l88 132h114z" />
    <glyph glyph-name="tilde" unicode="&#x2dc;" horiz-adv-x="483" 
d="M390 704q-25 -107 -97 -107q-19 0 -47 6q-65 14 -66 14q-31 0 -44 -33h-42q13 55 34 80t60 25q27 0 63 -10.5t51 -10.5q31 0 45 36h43z" />
    <glyph glyph-name="macron" unicode="&#xaf;" horiz-adv-x="483" 
d="M481 650h-479v94h479v-94z" />
    <glyph glyph-name="breve" unicode="&#x2d8;" horiz-adv-x="333" 
d="M311 710q-14 -71 -42 -99q-33 -33 -105 -33q-65 0 -98 28t-49 104h59q17 -58 88 -58q76 0 89 58h58z" />
    <glyph glyph-name="ring" unicode="&#x2da;" horiz-adv-x="317" 
d="M247 585q0 -39 -26 -66t-65 -27t-66 26t-27 65t26 66t65 27t66 -26t27 -65zM200 588q0 18 -14 30t-32 12t-30 -14t-12 -32t14 -30t32 -12t30 14t12 32z" />
    <glyph glyph-name="cedilla" unicode="&#xb8;" horiz-adv-x="483" 
d="M339 -111q0 -35 -22.5 -56t-74.5 -21q-23 0 -45.5 3t-62.5 14v46q24 -6 37 -8q40 -8 57 -8q19 0 28 4q16 7 16 26q0 24 -55 24h-13v83h41v-37q94 0 94 -70z" />
    <glyph glyph-name="caron" unicode="&#x2c7;" horiz-adv-x="333" 
d="M310 710l-89 -133h-114l-89 133l62 1l84 -71l83 71z" />
    <glyph glyph-name="Lslash" unicode="&#x141;" horiz-adv-x="538" 
d="M533 5h-207q-147 0 -209 71q-57 65 -57 211v83l-117 -67l-35 61l152 87v252h141v-171l119 69l35 -60l-154 -89v-133v-38q0 -76 23 -111q35 -53 137 -53h172v-112z" />
    <glyph glyph-name="lslash" unicode="&#x142;" horiz-adv-x="253" 
d="M363 542l-169 -98v-442h-135v365l-112 -65l-35 60l147 85v253h135v-175l134 78z" />
    <glyph glyph-name="Scaron" unicode="&#x160;" horiz-adv-x="730" 
d="M690 210q0 -91 -39 -139q-56 -69 -202 -69h-386v122h363q57 0 83 15q32 19 32 64q0 46 -25.5 65.5t-80.5 19.5h-171q-114 0 -170 46q-60 49 -60 156q0 109 58.5 159.5t182.5 50.5h381v-122h-358q-116 0 -116 -94q0 -39 26 -58.5t69 -19.5h192q102 0 148 -27
q73 -43 73 -169zM517 866l-89 -133h-114l-89 133l62 1l84 -71l83 71z" />
    <glyph glyph-name="scaron" unicode="&#x161;" horiz-adv-x="573" 
d="M534 170q0 -77 -36.5 -122.5t-101.5 -45.5h-343v102h281q73 0 73 54q0 52 -73 52h-117q-17 -1 -28 -1q-59 0 -92 21q-53 34 -53 121q0 162 177 162h286v-103h-258q-71 0 -71 -44v-9q4 -45 65 -45h123q75 0 115 -26q53 -35 53 -116zM451 686l-89 -133h-114l-89 133l62 1
l84 -71l83 71z" />
    <glyph glyph-name="Zcaron" unicode="&#x17d;" horiz-adv-x="709" 
d="M637 2h-580v125l394 450h-394v123h580v-123l-389 -455h389v-120zM469 869l-89 -133h-114l-89 133l62 1l84 -71l83 71z" />
    <glyph glyph-name="zcaron" unicode="&#x17e;" horiz-adv-x="564" 
d="M518 2h-473v108l300 293h-300v110h473v-111l-300 -292h300v-108zM439 691l-89 -133h-114l-89 133l62 1l84 -71l83 71z" />
    <glyph glyph-name="brokenbar" unicode="&#xa6;" horiz-adv-x="483" 
d="M289 322h-95v359h95v-359zM289 -164h-95v356h95v-356z" />
    <glyph glyph-name="Eth" unicode="&#xd0;" horiz-adv-x="744" 
d="M712 380q0 -229 -88 -313q-68 -65 -232 -65h-319v316h-65v76h65v306h315q188 0 266 -103q58 -77 58 -217zM558 351q0 150 -53 199q-35 32 -119 32l-170 -1v-187h171v-76h-171v-197l168 1q101 0 137.5 46t36.5 183z" />
    <glyph glyph-name="eth" unicode="&#xf0;" horiz-adv-x="590" 
d="M562 254q0 -101 -60 -173q-74 -89 -209 -89q-116 0 -188 61q-79 67 -79 191q0 112 69 181q65 65 158 65q47 0 103 -21q-43 69 -89 103l-168 -44l-17 57l127 35l-101 80l140 1l81 -52l173 43l14 -56l-125 -32q70 -61 108 -122q63 -102 63 -228zM426 241q0 64 -28 101
q-33 44 -102 44q-55 0 -94.5 -39.5t-39.5 -103.5q0 -57 32 -97q36 -45 100 -45q77 0 109 50q23 35 23 90z" />
    <glyph glyph-name="Yacute" unicode="&#xdd;" horiz-adv-x="598" 
d="M634 700l-264 -390v-308h-144l-1 308l-260 390h160l171 -268l173 268h165zM489 869l-162 -132h-62l90 132h134z" />
    <glyph glyph-name="yacute" unicode="&#xfd;" horiz-adv-x="481" 
d="M516 14q0 -95 -44 -144q-47 -53 -144 -53h-262v101h237q83 0 83 84h-121q-109 0 -155 38q-53 44 -53 156v317h127v-305q0 -52 11 -69q19 -29 80 -29h111v403h130v-499zM503 706l-162 -132h-62l90 132h134z" />
    <glyph glyph-name="Thorn" unicode="&#xde;" horiz-adv-x="718" 
d="M686 362q0 -119 -94 -168q-69 -36 -198 -36h-179v-156h-142v698h143v-135h189q130 0 196 -38q85 -49 85 -165zM528 362q0 39 -32 60.5t-98 21.5h-12h-170v-164h178q134 0 134 82z" />
    <glyph glyph-name="thorn" unicode="&#xfe;" horiz-adv-x="590" 
d="M564 271q0 -129 -61 -197q-64 -72 -194 -72l-118 -1l1 -185l-133 1v883h133l-1 -186l126 -1q104 0 175.5 -66.5t71.5 -175.5zM426 261q0 86 -39 118q-33 27 -110 27h-85l-1 -297l97 1q89 0 120 56q18 33 18 95z" />
    <glyph glyph-name="uni00AD" unicode="&#xad;" horiz-adv-x="374" 
d="M347 204h-321v118h321v-118z" />
    <glyph glyph-name="multiply" unicode="&#xd7;" horiz-adv-x="625" 
d="M546 120l-66 -66l-170 171l-167 -167l-66 65l166 169l-169 171l67 67l170 -171l164 167l65 -66l-164 -167z" />
    <glyph glyph-name="onesuperior" unicode="&#xb9;" horiz-adv-x="168" 
d="M132 280h-96v416h96v-416z" />
    <glyph glyph-name="twosuperior" unicode="&#xb2;" horiz-adv-x="460" 
d="M417 578q0 -58 -33 -90.5t-104 -32.5h-87q-50 0 -66 -24q-11 -16 -11 -54v-25h299v-70h-400v124q0 64 35.5 92.5t128.5 28.5h78q24 0 39 12t15 34q0 26 -17 39t-60 13h-219v69h262q67 0 103.5 -27.5t36.5 -88.5z" />
    <glyph glyph-name="threesuperior" unicode="&#xb3;" horiz-adv-x="410" 
d="M375 395q0 -58 -42 -86q-36 -24 -98 -24h-227v69h186q37 0 56.5 12t19.5 40q0 27 -20 39.5t-56 12.5h-150v68h147q38 0 57 11t19 40q0 52 -76 52h-183v68h217q68 0 102 -18q48 -26 48 -92q0 -28 -15.5 -51.5t-45.5 -44.5q23 -10 39 -30q22 -28 22 -66z" />
    <glyph glyph-name="onehalf" unicode="&#xbd;" horiz-adv-x="831" 
d="M801 293q0 -58 -33 -90.5t-104 -32.5h-87q-50 0 -66 -24q-11 -16 -11 -54v-25h299v-70h-400v124q0 64 35.5 92.5t128.5 28.5h78q24 0 39 12t15 34q0 26 -17 39t-60 13h-219v69h262q67 0 103.5 -27.5t36.5 -88.5zM476 692l-267 -696h-69l270 696h66zM132 280h-96v416h96
v-416z" />
    <glyph glyph-name="onequarter" unicode="&#xbc;" horiz-adv-x="837" 
d="M765 66h-56v-72h-90v72h-273v77l249 248h113l1 -257h56v-68zM470 698l-267 -696h-69l270 696h66zM132 280h-96v416h96v-416zM618 134v173l-171 -173h171z" />
    <glyph glyph-name="threequarters" unicode="&#xbe;" horiz-adv-x="1041" 
d="M990 78h-56v-81h-90v81h-273v85l249 276h113l1 -287h56v-74zM632 695l-267 -696h-69l270 696h66zM375 395q0 -58 -42 -86q-36 -24 -98 -24h-227v69h186q37 0 56.5 12t19.5 40q0 27 -20 39.5t-56 12.5h-150v68h147q38 0 57 11t19 40q0 52 -76 52h-183v68h217q68 0 102 -18
q48 -26 48 -92q0 -28 -15.5 -51.5t-45.5 -44.5q23 -10 39 -30q22 -28 22 -66zM843 153v193l-171 -193h171z" />
    <glyph glyph-name="uni001B" horiz-adv-x="0" 
 />
    <glyph glyph-name="uni0008" horiz-adv-x="0" 
 />
    <glyph glyph-name="uni000D" unicode="&#xd;" horiz-adv-x="0" 
 />
    <glyph glyph-name="uni2010" unicode="&#x2010;" horiz-adv-x="374" 
d="M347 204h-321v118h321v-118z" />
    <glyph glyph-name="uni2011" unicode="&#x2011;" horiz-adv-x="374" 
d="M347 204h-321v118h321v-118z" />
    <glyph glyph-name="figuredash" unicode="&#x2012;" horiz-adv-x="374" 
d="M347 204h-321v118h321v-118z" />
    <glyph glyph-name="afii00208" unicode="&#x2015;" horiz-adv-x="965" 
d="M964 322l-1 -118h-961v118h962z" />
    <glyph glyph-name="underscoredbl" unicode="&#x2017;" horiz-adv-x="483" 
d="M486 -192h-484v70h484v-70zM486 -88h-484v70h484v-70z" />
    <glyph glyph-name="quotereversed" unicode="&#x201b;" horiz-adv-x="190" 
d="M41 700h111v-118h-55v-92q-34 31 -48 69q-9 25 -9 52q0 9 1 17v72z" />
    <glyph glyph-name="uni201F" unicode="&#x201f;" horiz-adv-x="360" 
d="M41 700h111v-118h-55v-92q-34 31 -48 69q-9 25 -9 52q0 9 1 17v72zM202 700h111v-118h-55v-92q-34 31 -48 69q-9 25 -9 52q0 9 1 17v72z" />
    <glyph glyph-name="minute" unicode="&#x2032;" horiz-adv-x="190" 
d="M131 597h-76v228h76v-228z" />
    <glyph glyph-name="second" unicode="&#x2033;" horiz-adv-x="323" 
d="M131 597h-76v228h76v-228zM266 597h-76v228h76v-228z" />
    <glyph glyph-name="exclamdbl" unicode="&#x203c;" horiz-adv-x="525" 
d="M449 182h-141v518h141v-518zM451 2h-143v122h143v-122zM220 182h-141v518h141v-518zM222 2h-143v122h143v-122z" />
    <glyph glyph-name="uni203E" unicode="&#x203e;" horiz-adv-x="483" 
d="M481 650h-479v94h479v-94z" />
    <glyph glyph-name="fraction" unicode="&#x2044;" horiz-adv-x="405" 
d="M406 708l-342 -796h-65l339 796h68z" />
    <glyph glyph-name="uni2075" unicode="&#x2075;" horiz-adv-x="416" 
d="M383 406q0 -121 -146 -121h-224v68h204q32 0 46 10q19 13 19 43q0 29 -16.5 41t-48.5 12h-204v237h349v-69h-257v-99h148q56 0 93 -32t37 -90z" />
    <glyph glyph-name="uni2077" unicode="&#x2077;" horiz-adv-x="413" 
d="M383 639l-247 -343h-109l256 343h-264v69h364v-69z" />
    <glyph glyph-name="uni2078" unicode="&#x2078;" horiz-adv-x="416" 
d="M394 393q0 -48 -25 -76q-32 -36 -101 -36h-134q-65 0 -97 31q-29 28 -29 79q0 44 16 68q15 20 44 34q-28 23 -40 44q-14 25 -14 55q0 44 16 68q31 44 116 44h110q70 0 101 -25.5t31 -81.5q0 -38 -11.5 -60t-41.5 -44q31 -16 45 -38.5t14 -61.5zM300 580q0 28 -17.5 41
t-48.5 13h-63q-68 0 -68 -54q0 -27 18 -39.5t50 -12.5h63q31 0 46 11q20 12 20 41zM300 405q0 53 -66 53h-64q-31 0 -47 -10q-20 -14 -20 -43q0 -54 67 -54h64q66 0 66 54z" />
    <glyph glyph-name="uni207F" unicode="&#x207f;" horiz-adv-x="404" 
d="M119 683q39 53 113 53q64 0 94.5 -31.5t30.5 -95.5v-261h-96v250q0 44 -13 61.5t-38 17.5q-32 0 -49.5 -26.5t-17.5 -73.5v-229h-96v382h59z" />
    <glyph glyph-name="franc" unicode="&#x20a3;" horiz-adv-x="471" 
d="M81 242v486h374v-84h-240v-210h187v-85h-187v-107h129v-85h-129v-157h-134v157h-72v85h72z" />
    <glyph glyph-name="lira" unicode="&#x20a4;" horiz-adv-x="506" 
d="M486 86v-86h-460v77q82 14 82 150v26h-76v79h76v74h-76v79h76v9q0 121 59 181.5t177 60.5q50 0 109 -13v-85q-60 14 -89 14q-67 0 -96 -36.5t-30 -130.5h172v-79h-172v-74h172v-79h-172v-2q0 -50 -20.5 -95.5t-50.5 -69.5h319z" />
    <glyph glyph-name="peseta" unicode="&#x20a7;" horiz-adv-x="1240" 
d="M847 10q-68 -17 -132 -17q-69 0 -104 33t-35 100v367h-61q-2 -118 -64.5 -177t-184.5 -59h-61v-257h-134v728h215q108 0 163 -43.5t64 -136.5l149 152h47v-129h272q33 8 69 8q77 0 139 -19v-81q-62 21 -117 21q-45 0 -67.5 -18.5t-22.5 -55.5q0 -25 18.5 -42t71.5 -43
q90 -44 113.5 -85.5t23.5 -91.5q0 -86 -53 -128.5t-160 -42.5q-67 0 -149 17zM205 646v-306h50q64 0 93.5 35.5t29.5 122.5q0 84 -27 116t-86 32h-60zM838 84v13q87 -25 138 -25t76 19.5t25 59.5q0 29 -18 48.5t-76 48.5q-89 46 -111 85t-22 84q0 43 18 76h-159v-348
q0 -47 15 -59.5t42 -12.5q29 0 72 11z" />
    <glyph glyph-name="afii57636" unicode="&#x20aa;" horiz-adv-x="0" 
 />
    <glyph glyph-name="dong" unicode="&#x20ab;" horiz-adv-x="0" 
 />
    <glyph glyph-name="Euro" unicode="&#x20ac;" horiz-adv-x="799" 
d="M726 2h-244q-150 0 -232 78q-90 85 -90 258q0 202 87 287q76 75 239 75h240v-118h-238q-79 0 -120.5 -41.5t-41.5 -126.5h400v-119h-403q0 -97 46 -139q39 -36 119 -36h238v-118zM311 185h-231v111h231v-111zM315 414h-231v111h231v-111z" />
    <glyph glyph-name="afii61248" unicode="&#x2105;" horiz-adv-x="0" 
 />
    <glyph glyph-name="afii61289" unicode="&#x2113;" horiz-adv-x="0" 
 />
    <glyph glyph-name="afii61352" unicode="&#x2116;" horiz-adv-x="1204" 
d="M679 2h-165l-300 530v-530h-141v698h183l286 -504v504h137v-698zM1127 514q0 -79 -47 -129q-53 -57 -153 -57q-87 0 -143 46t-56 111q0 112 55 165q50 48 144 48q83 0 138 -44q62 -50 62 -140zM1027 513q0 47 -27.5 79.5t-70.5 32.5q-46 0 -74 -29t-28 -84
q0 -49 29.5 -79.5t69.5 -30.5q46 0 73.5 30.5t27.5 80.5zM1097 99h-321v118h321v-118z" />
    <glyph glyph-name="uni2120" unicode="&#x2120;" horiz-adv-x="803" 
d="M679 439h-58v192l-4 1l-75 -193h-23l-76 193l-4 -1v-192h-58v257h88l64 -162l57 162h89v-257zM362 521q0 -37 -23 -59.5t-63 -22.5h-214v50h175q46 0 46 26t-46 26h-73q-11 -1 -17 -1q-37 0 -58 11q-33 16 -33 59q0 79 111 79h178v-50h-161q-44 0 -44 -22v-4
q2 -22 40 -22h77q47 0 72 -13q33 -17 33 -57z" />
    <glyph glyph-name="Omega" unicode="&#x2126;" horiz-adv-x="768" 
d="M242 78q-53 33 -80 64q-43 46 -66 109.5t-23 140.5q0 95 39 175.5t113 123.5t170 43q164 0 251 -124q64 -91 64 -219q0 -82 -26 -145t-69 -109q-26 -28 -73 -59l178 3v-81h-281v86q40 20 61 39q35 29 59.5 70t37 87.5t12.5 96.5q0 68 -24 136t-73.5 103.5t-118.5 35.5
q-94 0 -145 -58q-71 -83 -71 -215q0 -106 44.5 -182t122.5 -111v-88h-282v82z" />
    <glyph glyph-name="estimated" unicode="&#x212e;" horiz-adv-x="600" 
d="M560 259h-404v-181q59 -59 145 -59q124 0 193 120l35 -21q-59 -85 -115 -110t-113 -25q-115 0 -186.5 79t-71.5 197q0 124 73 200t185 76q105 0 179 -69t80 -207zM447 295v145q-63 60 -147 60q-86 0 -144 -60v-145h291z" />
    <glyph glyph-name="oneeighth" unicode="&#x215b;" horiz-adv-x="0" 
 />
    <glyph glyph-name="threeeighths" unicode="&#x215c;" horiz-adv-x="0" 
 />
    <glyph glyph-name="fiveeighths" unicode="&#x215d;" horiz-adv-x="0" 
 />
    <glyph glyph-name="seveneighths" unicode="&#x215e;" horiz-adv-x="0" 
 />
    <glyph glyph-name="arrowleft" unicode="&#x2190;" horiz-adv-x="1000" 
d="M240 237q-59 66 -102 100.5t-100 64.5v22q57 30 99.5 64t102.5 100h37q-23 -46 -38 -71.5t-43 -60.5h764v-86h-764q27 -34 43 -60t38 -73h-37z" />
    <glyph glyph-name="arrowup" unicode="&#x2191;" horiz-adv-x="500" 
d="M74 613q66 59 100.5 102t64.5 99h22q29 -56 63 -98.5t101 -102.5v-37q-47 22 -72.5 37.5t-60.5 43.5v-705h-85v705q-34 -27 -60 -43t-73 -38v37z" />
    <glyph glyph-name="arrowright" unicode="&#x2192;" horiz-adv-x="1000" 
d="M759 588q59 -66 102 -100t99 -64v-22q-56 -30 -98.5 -64t-102.5 -101h-37q22 48 37.5 73t43.5 60h-765v86h765q-27 33 -43 59.5t-38 72.5h37z" />
    <glyph glyph-name="arrowdown" unicode="&#x2193;" horiz-adv-x="500" 
d="M425 153q-66 -60 -100.5 -102.5t-63.5 -98.5h-22q-30 56 -64.5 98t-100.5 103v37q47 -23 72.5 -38.5t60.5 -42.5v705h85v-705q34 26 60 42t73 39v-37z" />
    <glyph glyph-name="arrowboth" unicode="&#x2194;" horiz-adv-x="903" 
d="M262 445h377v143h32l183 -159v-31l-183 -159h-32v143h-377v-143h-31l-183 159v31l183 159h31v-143z" />
    <glyph glyph-name="arrowupdn" unicode="&#x2195;" horiz-adv-x="500" 
d="M292 717v-607q33 26 59.5 42.5t73.5 38.5v-37q-66 -59 -100.5 -102t-63.5 -99h-22q-30 56 -64.5 98.5t-100.5 102.5v37q47 -23 72 -38t61 -43v607q-34 -27 -60 -43t-73 -38v37q66 59 100.5 102t64.5 100h22q29 -57 63 -99.5t101 -102.5v-37q-47 22 -72.5 37.5t-60.5 43.5
z" />
    <glyph glyph-name="arrowupdnbse" unicode="&#x21a8;" horiz-adv-x="500" 
d="M292 717v-607q33 26 59.5 42.5t73.5 38.5v-37q-66 -59 -100.5 -102t-63.5 -99h-22q-30 56 -64.5 98.5t-100.5 102.5v37q47 -23 72 -38t61 -43v607q-34 -27 -60 -43t-73 -38v37q66 59 100.5 102t64.5 100h22q29 -57 63 -99.5t101 -102.5v-37q-47 22 -72.5 37.5t-60.5 43.5
zM74 -84h351v-85h-351v85z" />
    <glyph glyph-name="uni21B9" unicode="&#x21b9;" horiz-adv-x="0" 
 />
    <glyph glyph-name="uni21EE" unicode="&#x21ee;" horiz-adv-x="0" 
 />
    <glyph glyph-name="uni21B2" unicode="&#x21b2;" horiz-adv-x="712" 
d="M553 191h-287q55 -62 79 -132h-35q-68 100 -190 144v24q122 44 190 144h35q-24 -70 -79 -132h239v352h48v-400z" />
    <glyph glyph-name="uni21B3" unicode="&#x21b3;" horiz-adv-x="712" 
d="M593 203q-121 -44 -190 -144h-35q23 70 79 132h-287v400h48v-352h239q-56 62 -79 132h35q69 -100 190 -144v-24z" />
    <glyph glyph-name="partialdiff" unicode="&#x2202;" horiz-adv-x="0" 
 />
    <glyph glyph-name="Delta" unicode="&#x2206;" horiz-adv-x="0" 
 />
    <glyph glyph-name="product" unicode="&#x220f;" horiz-adv-x="0" 
 />
    <glyph glyph-name="summation" unicode="&#x2211;" horiz-adv-x="0" 
 />
    <glyph glyph-name="minus" unicode="&#x2212;" horiz-adv-x="374" 
d="M347 204h-321v118h321v-118z" />
    <glyph glyph-name="uni2218" unicode="&#x2218;" horiz-adv-x="354" 
d="M177 208q-51 0 -87 36t-36 87t35.5 86.5t87.5 35.5q51 0 86.5 -35.5t35.5 -86.5t-36 -87t-86 -36zM177 416q-36 0 -61 -24.5t-25 -60.5t25 -61t61 -25t60.5 25t24.5 61q0 35 -24.5 60t-60.5 25z" />
    <glyph glyph-name="uni2219" unicode="&#x2219;" horiz-adv-x="354" 
d="M177 208q-51 0 -87 36t-36 87t35.5 86.5t87.5 35.5q51 0 86.5 -35.5t35.5 -86.5t-36 -87t-86 -36z" />
    <glyph glyph-name="radical" unicode="&#x221a;" horiz-adv-x="548" 
d="M549 913l-153 -951l-242 498l-96 -44l-17 31l147 74l198 -402l127 794h36z" />
    <glyph glyph-name="infinity" unicode="&#x221e;" horiz-adv-x="499" 
d="M346 484q48 0 76 -26q36 -31 36 -100v-135q0 -65 -31 -96q-28 -29 -79 -29q-44 0 -68 16q-20 15 -33 44q-24 -28 -45 -41q-25 -14 -55 -14q-44 0 -68 17q-44 30 -44 116v110q0 70 25.5 101t81.5 31q38 0 60 -12t45 -42q15 31 37.5 45.5t61.5 14.5zM159 389q-28 0 -41 -17
t-13 -49v-63q0 -67 54 -67q27 0 39.5 18t12.5 49v63q0 31 -11 47q-12 19 -41 19zM334 389q-53 0 -53 -66v-63q0 -31 10 -47q14 -21 43 -21q54 0 54 68v63q0 66 -54 66z" />
    <glyph glyph-name="orthogonal" unicode="&#x221f;" horiz-adv-x="1000" 
d="M60 0v870h66v-804h814v-66h-880z" />
    <glyph glyph-name="intersection" unicode="&#x2229;" horiz-adv-x="718" 
d="M637 0h-95v385q0 135 -52 196.5t-138 61.5q-55 0 -94.5 -24t-61 -64.5t-27 -80t-5.5 -99.5v-375h-96v372q0 79 6.5 124t30 91.5t60 80.5t84.5 52t104 18q74 0 131 -29t93 -80.5t48 -107.5t12 -140v-381z" />
    <glyph glyph-name="integral" unicode="&#x222b;" horiz-adv-x="273" 
d="M212 910q24 0 42.5 -17t18.5 -36q0 -21 -12.5 -35.5t-31.5 -14.5q-17 0 -38 17q-13 10 -19 10q-20 0 -20 -31q0 -16 5 -71q18 -201 18 -325q0 -13 -4 -163t-7.5 -187.5t-13 -71.5t-23.5 -54t-31 -28.5t-38 -8.5q-26 0 -42 15.5t-16 43.5q0 22 12 34t32 12q19 0 34 -16
q13 -13 24 -13q19 0 19 30q0 15 -5 57q-19 165 -19 323q0 43 5 204t8 185q7 47 22 79.5t37 47t43 14.5z" />
    <glyph glyph-name="approxequal" unicode="&#x2248;" horiz-adv-x="625" 
d="M579 448q-46 -151 -179 -151q-40 0 -116 14t-92 14q-57 0 -81 -47h-78q25 81 61 113q40 36 113 36q47 0 112 -15t98 -15q30 0 49.5 12.5t33.5 38.5h79zM591 257q-46 -151 -179 -151q-40 0 -116 14t-92 14q-57 0 -81 -47h-78q25 81 61 113q40 36 113 36q47 0 112 -15
t98 -15q30 0 49.5 12.5t33.5 38.5h79z" />
    <glyph glyph-name="notequal" unicode="&#x2260;" horiz-adv-x="0" 
 />
    <glyph glyph-name="equivalence" unicode="&#x2261;" horiz-adv-x="583" 
d="M515 521h-448v94h448v-94zM515 309h-448v94h448v-94zM515 96h-448v95h448v-95z" />
    <glyph glyph-name="lessequal" unicode="&#x2264;" horiz-adv-x="0" 
 />
    <glyph glyph-name="greaterequal" unicode="&#x2265;" horiz-adv-x="0" 
 />
    <glyph glyph-name="uni22F2" unicode="&#x22f2;" horiz-adv-x="625" 
d="M579 448q-46 -151 -179 -151q-40 0 -116 14t-92 14q-57 0 -81 -47h-78q25 81 61 113q40 36 113 36q47 0 112 -15t98 -15q30 0 49.5 12.5t33.5 38.5h79zM591 257q-46 -151 -179 -151q-40 0 -116 14t-92 14q-57 0 -81 -47h-78q25 81 61 113q40 36 113 36q47 0 112 -15
t98 -15q30 0 49.5 12.5t33.5 38.5h79z" />
    <glyph glyph-name="house" unicode="&#x2302;" horiz-adv-x="600" 
d="M74 0v310l225 253l226 -253v-310h-451zM114 40h371v253l-186 208l-185 -208v-253z" />
    <glyph glyph-name="revlogicalnot" unicode="&#x2310;" horiz-adv-x="600" 
d="M191 38q-89 0 -121 33q-27 28 -27 106v224h511v-130h-415q-1 -8 -1 -16v-20v-13.5t1 -12.5q0 -28 14 -37.5t62 -9.5h39v-124h-63z" />
    <glyph glyph-name="integraltp" unicode="&#x2320;" horiz-adv-x="604" 
d="M337 -169h-71v802q0 107 43.5 161t99.5 54q32 0 49.5 -16t17.5 -37q0 -20 -12.5 -32.5t-30.5 -12.5q-15 0 -28 7q-9 5 -20.5 23t-22.5 18q-8 0 -15 -6q-5 -4 -7 -13q-3 -16 -3 -68v-880z" />
    <glyph glyph-name="integralbt" unicode="&#x2321;" horiz-adv-x="604" 
d="M266 848h71v-803q0 -106 -43.5 -160t-99.5 -54q-32 0 -49.5 15.5t-17.5 37.5q0 19 12.5 32t29.5 13q16 0 29 -8q9 -5 20.5 -22.5t22.5 -17.5q8 0 15 5q5 4 7 14q3 16 3 68v880z" />
    <glyph glyph-name="SF100000" unicode="&#x2500;" 
d="M0 332v88h709v-88h-709z" />
    <glyph glyph-name="SF110000" unicode="&#x2502;" 
d="M310 -225v1146h88v-1146h-88z" />
    <glyph glyph-name="SF010000" unicode="&#x250c;" 
d="M310 -225v619h399v-93h-311v-526h-88z" />
    <glyph glyph-name="SF030000" unicode="&#x2510;" 
d="M311 -229v526h-311v93h399v-619h-88z" />
    <glyph glyph-name="SF020000" unicode="&#x2514;" 
d="M310 301v620h88v-527h311v-93h-399z" />
    <glyph glyph-name="SF040000" unicode="&#x2518;" 
d="M-1 297v93h311v527h88v-620h-399z" />
    <glyph glyph-name="SF080000" unicode="&#x251c;" 
d="M310 -225v1146h88v-527h311v-93h-311v-526h-88z" />
    <glyph glyph-name="SF090000" unicode="&#x2524;" 
d="M310 -225v526h-310v93h310v527h88v-1146h-88z" />
    <glyph glyph-name="SF060000" unicode="&#x252c;" 
d="M310 -232v529h-310v94h709v-94h-311v-529h-88z" />
    <glyph glyph-name="SF070000" unicode="&#x2534;" 
d="M0 297v94h310v530h88v-530h311v-94h-709z" />
    <glyph glyph-name="SF050000" unicode="&#x253c;" 
d="M310 -229v528h-310v93h310v529h88v-529h311v-93h-311v-528h-88z" />
    <glyph glyph-name="SF430000" unicode="&#x2550;" 
d="M0 332h709v-89h-709v89zM0 420v88h709v-88h-709z" />
    <glyph glyph-name="SF240000" unicode="&#x2551;" 
d="M309 -225h-88v1146h88v-1146zM398 921h88v-1146h-88v1146z" />
    <glyph glyph-name="SF510000" unicode="&#x2552;" 
d="M310 -225v712h399v-93h-311v-93h311v-93h-311v-433h-88z" />
    <glyph glyph-name="SF520000" unicode="&#x2553;" 
d="M309 -228h-88v621h487v-93h-222v-528h-88v528h-89v-528z" />
    <glyph glyph-name="SF390000" unicode="&#x2554;" 
d="M309 -228h-88v714h487v-93h-399v-621zM398 -228v528h310v-94h-222v-434h-88z" />
    <glyph glyph-name="SF220000" unicode="&#x2555;" 
d="M311 -228v433h-311v93h311v93h-311v93h399v-712h-88z" />
    <glyph glyph-name="SF210000" unicode="&#x2556;" 
d="M402 301h-88v-528h-89v528h-222v93h487v-621h-88v528z" />
    <glyph glyph-name="SF250000" unicode="&#x2557;" 
d="M395 397h-399v93h487v-714h-88v621zM218 -224v434h-222v94h311v-528h-89z" />
    <glyph glyph-name="SF500000" unicode="&#x2558;" 
d="M310 208v713h88v-434h311v-93h-311v-93h311v-93h-399z" />
    <glyph glyph-name="SF490000" unicode="&#x2559;" 
d="M221 300v621h88v-528h89v528h88v-528h222v-93h-487z" />
    <glyph glyph-name="SF380000" unicode="&#x255a;" 
d="M221 206v715h88v-621h399v-94h-487zM708 393h-310v528h88v-435h222v-93z" />
    <glyph glyph-name="SF280000" unicode="&#x255b;" 
d="M-4 204v93h311v93h-311v93h311v434h88v-713h-399z" />
    <glyph glyph-name="SF270000" unicode="&#x255c;" 
d="M-1 300v93h222v528h89v-528h88v528h88v-621h-487z" />
    <glyph glyph-name="SF260000" unicode="&#x255d;" 
d="M-1 203v94h399v621h88v-715h-487zM-1 483h222v435h89v-528h-311v93z" />
    <glyph glyph-name="SF360000" unicode="&#x255e;" 
d="M310 -225v1146h88v-434h311v-93h-311v-93h311v-93h-311v-433h-88z" />
    <glyph glyph-name="SF370000" unicode="&#x255f;" 
d="M221 -225v1146h88v-1146h-88zM398 -225v1146h88v-527h222v-93h-222v-526h-88z" />
    <glyph glyph-name="SF420000" unicode="&#x2560;" 
d="M221 -225v1146h88v-1146h-88zM398 -225v526h310v-93h-222v-433h-88zM398 394v527h88v-434h222v-93h-310z" />
    <glyph glyph-name="SF190000" unicode="&#x2561;" 
d="M310 -225v433h-310v93h310v93h-310v93h310v434h88v-1146h-88z" />
    <glyph glyph-name="SF200000" unicode="&#x2562;" 
d="M222 -225v526h-222v93h222v527h88v-1146h-88zM398 -225v1146h89v-1146h-89z" />
    <glyph glyph-name="SF230000" unicode="&#x2563;" 
d="M222 -225v433h-222v93h310v-526h-88zM398 -225v1146h89v-1146h-89zM0 394v93h222v434h88v-527h-310z" />
    <glyph glyph-name="SF470000" unicode="&#x2564;" 
d="M0 300h709v-94h-311v-434h-88v434h-310v94zM0 393v93h709v-93h-709z" />
    <glyph glyph-name="SF480000" unicode="&#x2565;" 
d="M0 300v93h709v-93h-222v-528h-89v528h-88v-528h-88v528h-222z" />
    <glyph glyph-name="SF410000" unicode="&#x2566;" 
d="M0 300h310v-528h-88v434h-222v94zM709 300v-94h-222v-434h-89v528h311zM0 393v93h709v-93h-709z" />
    <glyph glyph-name="SF450000" unicode="&#x2567;" 
d="M0 300h709v-94h-709v94zM0 393v93h310v435h88v-435h311v-93h-709z" />
    <glyph glyph-name="SF460000" unicode="&#x2568;" 
d="M0 300v93h222v528h88v-528h88v528h89v-528h222v-93h-709z" />
    <glyph glyph-name="SF400000" unicode="&#x2569;" 
d="M0 300h709v-94h-709v94zM0 393v93h222v435h88v-528h-310zM398 393v528h89v-435h222v-93h-311z" />
    <glyph glyph-name="SF540000" unicode="&#x256a;" 
d="M0 301h310v93h-310v93h310v434h88v-434h311v-93h-311v-93h311v-93h-311v-433h-88v433h-310v93z" />
    <glyph glyph-name="SF530000" unicode="&#x256b;" 
d="M0 301v93h222v527h88v-527h88v527h89v-527h222v-93h-222v-526h-89v526h-88v-526h-88v526h-222z" />
    <glyph glyph-name="SF440000" unicode="&#x256c;" 
d="M0 301h310v-526h-88v433h-222v93zM0 394v93h222v434h88v-527h-310zM398 394v527h89v-434h222v-93h-311zM709 301v-93h-222v-433h-89v526h311z" />
    <glyph glyph-name="upblock" unicode="&#x2580;" 
d="M0 267v654h709v-654h-709z" />
    <glyph glyph-name="dnblock" unicode="&#x2584;" 
d="M-3 -225v653h709v-653h-709z" />
    <glyph glyph-name="block" unicode="&#x2588;" 
d="M0 -225v1146h709v-1146h-709z" />
    <glyph glyph-name="lfblock" unicode="&#x258c;" 
d="M0 -221v1142h354v-1142h-354z" />
    <glyph glyph-name="rtblock" unicode="&#x2590;" 
d="M708 -225h-354v1146h354v-1146z" />
    <glyph glyph-name="ltshade" unicode="&#x2591;" 
d="M0 921h64v-68h-64v68zM255 921h64v-68h-64v68zM511 921h64v-68h-64v68zM128 786h64v-67h-64v67zM383 786h64v-67h-64v67zM639 786h64v-67h-64v67zM511 651h64v-67h-64v67zM255 651h64v-67h-64v67zM0 651h64v-67h-64v67zM639 517h64v-68h-64v68zM383 517h64v-68h-64v68z
M128 517h64v-68h-64v68zM0 381h64v-67h-64v67zM255 381h64v-67h-64v67zM511 381h64v-67h-64v67zM639 247h64v-68h-64v68zM383 247h64v-68h-64v68zM128 247h64v-68h-64v68zM0 112h64v-68h-64v68zM255 112h64v-68h-64v68zM511 112h64v-68h-64v68zM128 -22h64v-68h-64v68z
M383 -22h64v-68h-64v68zM639 -22h64v-68h-64v68zM511 -158h64v-67h-64v67zM255 -158h64v-67h-64v67zM0 -158h64v-67h-64v67z" />
    <glyph glyph-name="shade" unicode="&#x2592;" 
d="M59 921h59v-68h-59v68zM177 921h58v-68h-58v68zM294 921h60v-68h-60v68zM412 921h59v-68h-59v68zM530 921h59v-68h-59v68zM648 921h59v-68h-59v68zM0 786h59v-67h-59v67zM118 786h59v-67h-59v67zM235 786h59v-67h-59v67zM354 786h58v-67h-58v67zM471 786h59v-67h-59v67z
M589 786h59v-67h-59v67zM59 651h59v-67h-59v67zM177 651h58v-67h-58v67zM294 651h60v-67h-60v67zM412 651h59v-67h-59v67zM530 651h59v-67h-59v67zM648 651h59v-67h-59v67zM118 516h59v-67h-59v67zM235 516h59v-67h-59v67zM354 516h58v-67h-58v67zM471 516h59v-67h-59v67z
M589 516h59v-67h-59v67zM0 516h59v-67h-59v67zM59 381h59v-67h-59v67zM177 381h58v-67h-58v67zM294 381h60v-67h-60v67zM412 381h59v-67h-59v67zM530 381h59v-67h-59v67zM648 381h59v-67h-59v67zM0 247h59v-68h-59v68zM235 247h59v-68h-59v68zM354 247h58v-68h-58v68z
M471 247h59v-68h-59v68zM589 247h59v-68h-59v68zM118 247h59v-68h-59v68zM648 112h59v-68h-59v68zM530 112h59v-68h-59v68zM412 112h59v-68h-59v68zM294 112h60v-68h-60v68zM177 112h58v-68h-58v68zM59 112h59v-68h-59v68zM0 -23h59v-67h-59v67zM118 -23h59v-67h-59v67z
M235 -23h59v-67h-59v67zM354 -23h58v-67h-58v67zM471 -23h59v-67h-59v67zM589 -23h59v-67h-59v67zM648 -158h59v-67h-59v67zM530 -158h59v-67h-59v67zM412 -158h59v-67h-59v67zM294 -158h60v-67h-60v67zM177 -158h58v-67h-58v67zM59 -158h59v-67h-59v67z" />
    <glyph glyph-name="dkshade" unicode="&#x2593;" 
d="M707 730v-190h-59v-64h59v-190h-59v-64h59v-190h-59v-63h59v-190h-707v63h59v64h-59v189h59v64h-59v190h59v64h-59v190h59v64h-59v190h59v64h59v-64h59v64h58v-64h59v64h60v-64h58v64h59v-64h59v64h59v-64h59v64h59v-127h-59v-64h59zM59 794v-64h59v64h-59zM177 794v-64
h58v64h-58zM294 794v-64h60v64h-60zM412 794v-64h59v64h-59zM530 794v-64h59v64h-59zM648 667h-59v-64h59v64zM530 667h-59v-64h59v64zM412 667h-58v-64h58v64zM294 667h-59v-64h59v64zM177 667h-59v-64h59v64zM59 540v-64h59v64h-59zM177 540v-64h58v64h-58zM294 540v-64
h60v64h-60zM412 540v-64h59v64h-59zM530 540v-64h59v64h-59zM177 413h-59v-64h59v64zM235 413v-64h59v64h-59zM354 413v-64h58v64h-58zM471 413v-64h59v64h-59zM589 413v-64h59v64h-59zM59 286v-64h59v64h-59zM294 286v-64h60v64h-60zM235 222v64h-58v-64h58zM412 286v-64
h59v64h-59zM530 286v-64h59v64h-59zM648 95v64h-59v-64h59zM530 95v64h-59v-64h59zM412 95v64h-58v-64h58zM294 95v64h-59v-64h59zM177 95v64h-59v-64h59zM59 32v-63h59v63h-59zM177 32v-63h58v63h-58zM294 32v-63h60v63h-60zM412 32v-63h59v63h-59zM530 32v-63h59v63h-59z
M648 -158v64h-59v-64h59zM530 -158v64h-59v-64h59zM412 -158v64h-58v-64h58zM294 -158v64h-59v-64h59zM177 -158v64h-59v-64h59z" />
    <glyph glyph-name="filledbox" unicode="&#x25a0;" horiz-adv-x="604" 
d="M71 461h461v-461h-461v461z" />
    <glyph glyph-name="H22073" unicode="&#x25a1;" horiz-adv-x="604" 
d="M71 461h461v-461h-461v461zM108 424v-387h387v387h-387z" />
    <glyph glyph-name="H18543" unicode="&#x25aa;" horiz-adv-x="354" 
d="M289 444v-227h-226v226z" />
    <glyph glyph-name="H18551" unicode="&#x25ab;" horiz-adv-x="354" 
d="M289 444v-227h-226v226zM252 407l-152 -1v-152h152v153z" />
    <glyph glyph-name="filledrect" unicode="&#x25ac;" horiz-adv-x="1000" 
d="M166 188h668v-188h-668v188z" />
    <glyph glyph-name="triagup" unicode="&#x25b2;" horiz-adv-x="989" 
d="M148 0l347 693l346 -693h-693z" />
    <glyph glyph-name="triagrt" unicode="&#x25ba;" horiz-adv-x="989" 
d="M140 692l708 -354l-708 -353v707z" />
    <glyph glyph-name="triagdn" unicode="&#x25bc;" horiz-adv-x="989" 
d="M841 678l-346 -693l-347 693h693z" />
    <glyph glyph-name="triaglf" unicode="&#x25c4;" horiz-adv-x="989" 
d="M848 692v-707l-708 353z" />
    <glyph glyph-name="lozenge" unicode="&#x25ca;" horiz-adv-x="604" 
d="M301 497q54 0 106 -28t80.5 -79.5t28.5 -107.5q0 -89 -63 -152t-152 -63t-152 63t-63 152q0 56 29 107.5t80.5 79.5t105.5 28zM301 460q-45 0 -87.5 -23t-66.5 -66t-24 -89q0 -74 52.5 -126t125.5 -52q74 0 126 52t52 126q0 46 -24 89t-66.5 66t-87.5 23z" />
    <glyph glyph-name="circle" unicode="&#x25cb;" horiz-adv-x="604" 
d="M301 497q54 0 106 -28t80.5 -79.5t28.5 -107.5q0 -89 -63 -152t-152 -63t-152 63t-63 152q0 56 29 107.5t80.5 79.5t105.5 28z" />
    <glyph glyph-name="H18533" unicode="&#x25cf;" horiz-adv-x="604" 
d="M62 0v479h479v-479h-479zM301 338q-41 0 -69.5 -29t-28.5 -70q0 -40 29 -69t69 -29q41 0 70 29t29 69q0 41 -29 70t-70 29z" />
    <glyph glyph-name="invbullet" unicode="&#x25d8;" horiz-adv-x="604" 
d="M20 0v564h564v-564h-564zM302 497q-54 0 -105.5 -28t-80.5 -79.5t-29 -107.5q0 -89 63 -152t152 -63t152 63t63 152q0 56 -29 107.5t-80.5 79.5t-105.5 28zM302 460q45 0 87.5 -23t66.5 -65.5t24 -89.5q0 -74 -52 -126t-126 -52t-126 52t-52 126q0 47 24 89.5t66.5 65.5
t87.5 23z" />
    <glyph glyph-name="invcircle" unicode="&#x25d9;" horiz-adv-x="354" 
d="M177 208q-51 0 -87 36t-36 87t35.5 86.5t87.5 35.5q51 0 86.5 -35.5t35.5 -86.5t-36 -87t-86 -36zM177 416q-36 0 -61 -24.5t-25 -60.5t25 -61t61 -25t60.5 25t24.5 61q0 35 -24.5 60t-60.5 25z" />
    <glyph glyph-name="openbullet" unicode="&#x25e6;" horiz-adv-x="916" 
d="M440 792h37v-165q50 -3 88.5 -18.5t81.5 -50.5l142 139l25 -26l-140 -140q36 -46 51 -82q18 -47 20 -91h163v-33h-163q-9 -95 -70 -172l139 -142l-28 -24l-138 138q-48 -36 -83.5 -49.5t-87.5 -19.5v-164h-37v164q-55 7 -92.5 22t-76.5 45l-143 -135l-25 24l139 140
q-32 41 -49 81t-22 92h-164v33h164q4 52 20.5 91t49.5 80l-138 140l23 28l143 -138q49 34 87.5 49t83.5 19v165z" />
    <glyph glyph-name="smileface" unicode="&#x263a;" horiz-adv-x="1000" 
d="M500 564q78 0 152.5 -40t116.5 -115t42 -156t-41 -155t-115.5 -115t-154.5 -41q-82 0 -155.5 41t-115 115t-41.5 155t41.5 156t116.5 115t154 40zM500 519q-67 0 -131 -34.5t-100 -98.5t-36 -133t35.5 -132t99 -98t132.5 -35q68 0 131.5 35t99 98t35.5 132t-36 133
t-100 98.5t-130 34.5zM380 357q16 0 27.5 -11.5t11.5 -28.5q0 -16 -11.5 -27.5t-27.5 -11.5t-28 11.5t-12 27.5q0 17 12 28.5t28 11.5zM619 357q16 0 27.5 -11.5t11.5 -28.5q0 -16 -11.5 -27.5t-27.5 -11.5t-28 11.5t-12 27.5q0 17 11.5 28.5t28.5 11.5zM356 153l30 17
q39 -70 114 -70q74 0 112 70l31 -17q-24 -47 -60 -71t-83 -24q-48 0 -84 24t-60 71z" />
    <glyph glyph-name="invsmileface" unicode="&#x263b;" horiz-adv-x="1000" 
d="M500 564q78 0 152.5 -40t116.5 -115t42 -156t-41 -155t-115.5 -115t-154.5 -41q-82 0 -155.5 41t-115 115t-41.5 155t41.5 156t116.5 115t154 40zM380 357q-16 0 -28 -11.5t-12 -28.5q0 -16 12 -27.5t28 -11.5t27.5 11.5t11.5 27.5q0 17 -11.5 28.5t-27.5 11.5zM619 357
q-17 0 -28.5 -11.5t-11.5 -28.5q0 -16 12 -27.5t28 -11.5t27.5 11.5t11.5 27.5q0 17 -11.5 28.5t-27.5 11.5zM356 153q24 -47 60 -71t84 -24q47 0 83 24t60 71l-31 17q-38 -70 -112 -70q-75 0 -114 70z" />
    <glyph glyph-name="sun" unicode="&#x263c;" horiz-adv-x="916" 
d="M440 792h37v-165q50 -3 88.5 -18.5t81.5 -50.5l142 139l25 -26l-140 -140q36 -46 51 -82q18 -47 20 -91h163v-33h-163q-9 -95 -70 -172l139 -142l-28 -24l-138 138q-48 -36 -83.5 -49.5t-87.5 -19.5v-164h-37v164q-55 7 -92.5 22t-76.5 45l-143 -135l-25 24l139 140
q-32 41 -49 81t-22 92h-164v33h164q4 52 20.5 91t49.5 80l-138 140l23 28l143 -138q49 34 87.5 49t83.5 19v165zM457 591q-63 0 -123 -32t-93.5 -92.5t-33.5 -125.5t33 -124.5t92.5 -92.5t124.5 -33t124.5 33t92.5 92.5t33 124.5t-33.5 125.5t-93.5 92.5t-123 32z" />
    <glyph glyph-name="female" unicode="&#x2640;" horiz-adv-x="750" 
d="M389 270v-194h224v-29h-224v-213h-29v213h-225v29h225v194q-51 0 -110.5 32t-95 93.5t-35.5 129.5q0 66 34 127t94.5 95t127.5 34q66 0 127 -34t94.5 -95t33.5 -127q0 -102 -70 -176t-171 -79zM374 753q-57 0 -112 -29.5t-86 -84.5t-31 -115q0 -95 67.5 -162t161.5 -67
q96 0 163 67t67 162q0 60 -31 115t-86 84.5t-113 29.5z" />
    <glyph glyph-name="male" unicode="&#x2642;" horiz-adv-x="750" 
d="M594 781l17 -8l80 -325l-28 -8l-69 284l-175 -375q72 -36 109 -98.5t37 -132.5q0 -67 -33.5 -127.5t-94.5 -94.5t-128 -34q-66 0 -127 34t-94.5 94.5t-33.5 127.5q0 106 75 180.5t182 74.5q38 0 81 -13l176 376l-263 -129l-11 26zM309 347q-57 0 -112 -29.5t-86 -85
t-31 -114.5q0 -96 67.5 -162.5t161.5 -66.5q96 0 163 66.5t67 162.5q0 59 -31 114.5t-86 85t-113 29.5z" />
    <glyph glyph-name="spade" unicode="&#x2660;" horiz-adv-x="656" 
d="M328 601q12 -53 38.5 -94.5t94 -102.5t86 -94t18.5 -67q0 -46 -31.5 -77.5t-75.5 -31.5q-40 0 -75 28q-26 21 -49 65q0 -72 18.5 -114t58.5 -66.5t107 -28.5l3 -18h-387l4 18q90 0 139.5 52.5t47.5 156.5q-22 -46 -54.5 -69.5t-73.5 -23.5q-44 0 -75.5 32t-31.5 75
q0 36 16 65q22 41 71.5 81.5t72.5 66.5q36 41 52.5 72.5t25.5 74.5z" />
    <glyph glyph-name="club" unicode="&#x2663;" horiz-adv-x="656" 
d="M535 0h-414l4 17q81 17 107 33q40 25 65 74t25 103q0 7 -1 23q-29 -61 -72 -89t-87 -28q-57 0 -96.5 39.5t-39.5 97.5q0 57 36 95.5t81 39.5q30 -1 81 -26q-21 34 -27 51.5t-6 37.5q0 56 38.5 94.5t96.5 38.5q57 0 96.5 -38.5t39.5 -92.5q0 -43 -34 -91q41 20 50 22
q13 4 29 4q49 0 85 -38t36 -95q0 -59 -39.5 -98.5t-95.5 -40.5q-38 2 -66 16.5t-52 38.5q-17 19 -43 62q2 -78 24 -123t66 -75q31 -20 109 -35z" />
    <glyph glyph-name="heart" unicode="&#x2665;" horiz-adv-x="656" 
d="M329 -11q-15 57 -43 107.5t-109 156.5q-59 79 -73 100q-22 34 -32 62.5t-10 57.5q0 54 36 91t88 37q55 0 95 -38q30 -29 48 -85q16 55 45 84q41 39 93 39q53 0 90 -36t37 -86q0 -44 -21 -91.5t-83 -125.5q-80 -101 -117 -166q-29 -52 -44 -107z" />
    <glyph glyph-name="diamond" unicode="&#x2666;" horiz-adv-x="656" 
d="M328 603q43 -76 106 -160q73 -98 118 -148q-36 -38 -118 -148q-66 -88 -106 -158q-14 25 -36 58q-40 59 -99 137q-12 17 -89 111q49 56 127 160q58 77 97 148z" />
    <glyph glyph-name="musicalnote" unicode="&#x266a;" horiz-adv-x="500" 
d="M237 666h19q84 0 111 -7q38 -10 68 -38q21 -20 34 -57.5t13 -87.5v-50h-48v21q0 33 -14 56t-42 36q-35 15 -79 15h-13v-408q0 -59 -16 -92t-54 -52.5t-83 -19.5q-53 0 -84 30t-31 79q0 51 37 86t97 35q38 0 85 -23v477z" />
    <glyph glyph-name="musicalnotedbl" unicode="&#x266b;" horiz-adv-x="750" 
d="M260 621l389 121v-541q0 -61 -15.5 -91.5t-52.5 -50.5t-83 -20q-53 0 -85 30.5t-32 78.5q0 49 38 84.5t97 35.5q20 0 34.5 -3.5t48.5 -17.5v353l-290 -90v-408q0 -60 -16 -92.5t-54 -52t-83 -19.5q-53 0 -84 30t-31 78q0 51 37 86t97 35q38 0 85 -22v476z" />
    <glyph glyph-name="uniF800" unicode="&#xf800;" horiz-adv-x="556" 
d="M507 0h-459v227h110v-117h239v117h110v-227z" />
    <glyph glyph-name="uniF801" unicode="&#xf801;" horiz-adv-x="559" 
d="M189 119q28 -48 50 -122h-55q-53 84 -136 148v58q83 64 141 149h50q-22 -75 -50 -123h210v122h110v-232h-320z" />
    <glyph glyph-name="uniF802" unicode="&#xf802;" horiz-adv-x="271" 
d="M222 293h-174v110h174v-110z" />
    <glyph glyph-name="uniF803" unicode="&#xf803;" horiz-adv-x="732" 
d="M683 276h-115v11q0 17 -37.5 29.5t-86.5 12.5h-157q-50 0 -87.5 -12.5t-37.5 -29.5v-10h-114q0 42 33 83q78 44 226 44h117q153 0 221 -39q38 -46 38 -89zM629 0h-527v103q0 34 102 131l15 15v68h58v-9h175v9h58v-68q5 -5 16 -15q103 -94 103 -131v-103zM455 171
q0 25 -26.5 43t-64.5 18q-36 0 -62.5 -18t-26.5 -43t26.5 -43t62.5 -18q38 0 64.5 18t26.5 43zM162 229h-114v41h114v-41zM683 229h-115v41h115v-41z" />
    <glyph glyph-name="uniF804" unicode="&#xf804;" horiz-adv-x="571" 
d="M571 467l-285 -306l-286 306h571z" />
    <glyph glyph-name="uniF805" unicode="&#xf805;" horiz-adv-x="394" 
d="M48 142q0 62 44 105.5t104 43.5q61 0 104.5 -44t43.5 -105q0 -60 -43 -103.5t-105 -43.5q-61 0 -104.5 43t-43.5 104zM283 142q0 36 -25.5 61.5t-61.5 25.5t-61.5 -25.5t-25.5 -61.5t25.5 -61.5t61.5 -25.5t61.5 25.5t25.5 61.5z" />
    <glyph glyph-name="uniF806" unicode="&#xf806;" horiz-adv-x="394" 
d="M196 -5q-31 0 -58 11t-47 31.5t-31.5 47t-11.5 57.5t11.5 58t31.5 47t47 32t58 12t58 -12t47 -32t31.5 -47t11.5 -58t-11.5 -57.5t-31.5 -47t-47 -31.5t-58 -11z" />
    <glyph glyph-name="uniF807" unicode="&#xf807;" horiz-adv-x="705" 
d="M636 402h-61q0 87 -37 129.5t-73 60.5h-4v-216l-64 64v375h56q12 -44 62 -89q77 -71 99 -120.5t22 -143.5v-60zM656 113l-51 -50l-464 463l51 52zM220 -3q-77 0 -124.5 39.5t-47.5 104.5q0 71 45.5 111t122.5 40q99 0 169 -64t70 -84t-63.5 -83.5t-171.5 -63.5zM233 203
q0 14 -19.5 25t-45.5 11q-27 0 -46 -11t-19 -25q0 -15 19.5 -25.5t45.5 -10.5q25 0 45 10.5t20 25.5z" />
    <glyph glyph-name="uniF808" unicode="&#xf808;" horiz-adv-x="730" 
d="M510 349v-38q-85 -42 -134 -140h-23q-50 98 -134 140v38q75 -3 120 -38v322h52v-322q45 35 119 38zM681 174q0 -64 -49 -119t-145 -55h-245q-95 0 -144.5 55t-49.5 119h58q0 -41 32.5 -78.5t103.5 -37.5h245q72 0 104 37.5t32 78.5h58z" />
    <glyph glyph-name="uniF809" unicode="&#xf809;" horiz-adv-x="621" 
d="M391 -2h-72q28 99 65 176h-336v285h110v-174h226q-37 77 -65 177h65q78 -111 187 -196v-73q-109 -85 -180 -195z" />
    <glyph glyph-name="uniF80A" unicode="&#xf80a;" horiz-adv-x="451" 
d="M402 287h-354v122h354v-122z" />
    <glyph glyph-name="uniF80B" unicode="&#xf80b;" horiz-adv-x="236" 
 />
    <glyph glyph-name="uniF80C" unicode="&#xf80c;" horiz-adv-x="559" 
d="M189 583q28 -48 50 -123h-50q-58 85 -141 149v58q83 64 136 149h55q-22 -75 -50 -122h320v-863h-110v752h-210z" />
    <glyph glyph-name="uniF80D" unicode="&#xf80d;" horiz-adv-x="559" 
d="M368 694q-28 47 -49 122h54q54 -85 136 -149v-58q-82 -64 -141 -149h-49q21 75 49 123h-210v-752h-110v863h320z" />
    <glyph glyph-name="uniF80E" unicode="&#xf80e;" horiz-adv-x="1500" 
 />
    <glyph glyph-name="uniF80F" unicode="&#xf80f;" horiz-adv-x="856" 
d="M807 519h-64q0 92 -69.5 162t-162.5 70v64q119 0 207.5 -88t88.5 -208zM264 321l-112 112l45 45l127 -128q75 13 125 -79h5v428h51q11 -37 41 -61q87 -70 116.5 -105.5t29.5 -91.5v-38h-58q0 27 -8 45t-47.5 50.5t-54.5 38.5h-7v-260q0 -53 -22 -92l-2 -4l91 -90l-45 -45
l-91 91q-39 -24 -95 -24q-54 0 -92 34.5t-38 79.5q0 29 11.5 54t26.5 37zM344 -3q-119 0 -207.5 88t-88.5 208h64q0 -92 69.5 -162t162.5 -70v-64z" />
    <glyph glyph-name="uniF810" unicode="&#xf810;" horiz-adv-x="856" 
d="M807 519h-64q0 92 -69.5 162t-162.5 70v64q119 0 207.5 -88t88.5 -208zM692 403h-58q0 27 -8 45t-47.5 50.5t-54.5 38.5h-7v-260q0 -79 -44.5 -121.5t-119.5 -42.5q-54 0 -92 34.5t-38 79.5q0 50 34.5 87.5t84.5 37.5q63 0 107 -81h5v428h51q11 -37 41 -61
q87 -70 116.5 -105.5t29.5 -91.5v-38zM344 -3q-119 0 -207.5 88t-88.5 208h64q0 -92 69.5 -162t162.5 -70v-64z" />
    <glyph glyph-name="uniF811" unicode="&#xf811;" horiz-adv-x="705" 
d="M636 402h-61q0 90 -42 135.5t-63 54.5h-9v-350q0 -245 -241 -245q-77 0 -124.5 39.5t-47.5 104.5q0 71 45.5 111t122.5 40q128 0 176 -74h5v597h56q12 -44 62 -89q77 -71 99 -120.5t22 -143.5v-60zM233 203q0 14 -19.5 25t-45.5 11q-27 0 -46 -11t-19 -25
q0 -15 19.5 -25.5t45.5 -10.5q25 0 45 10.5t20 25.5z" />
    <glyph glyph-name="uniF812" unicode="&#xf812;" horiz-adv-x="1000" 
d="M950 0h-902v227h110v-117h682v117h110v-227z" />
    <glyph glyph-name="afii10023" unicode="&#x401;" horiz-adv-x="653" 
d="M594 2h-244q-150 0 -232 78q-90 85 -90 258q0 202 87 287q76 75 239 75h240v-118h-238q-79 0 -120.5 -41.5t-41.5 -126.5h400v-119h-403q0 -97 46 -139q39 -36 119 -36h238v-118zM567 757h-111v120h111v-120zM310 761h-111v120h111v-120z" />
    <glyph glyph-name="afii10051" unicode="&#x402;" horiz-adv-x="795" 
d="M719.5 56q-67.5 -54 -230.5 -54h-315v698h143v-245h178q5 1 12 1h16q96 0 160 -34q104 -55 104 -193q0 -119 -67.5 -173zM494 333h-177v-325h169q74 0 108.5 35t34.5 128q0 162 -135 162zM489 583h-479v118h479v-118z" />
    <glyph glyph-name="afii10052" unicode="&#x403;" horiz-adv-x="538" 
d="M508 588h-172q-102 0 -137 -53q-23 -35 -23 -111v-38v-384h-141v416q0 146 57 211q62 71 209 71h207v-112zM480 870l-162 -133h-62l90 133h134z" />
    <glyph glyph-name="afii10053" unicode="&#x404;" horiz-adv-x="653" 
d="M594 2h-244q-150 0 -232 78q-90 85 -90 258q0 202 87 287q76 75 239 75h240v-118h-238q-79 0 -120.5 -41.5t-41.5 -126.5h204l1 -119h-208q0 -97 46 -139q39 -36 119 -36h238v-118z" />
    <glyph glyph-name="afii10054" unicode="&#x405;" horiz-adv-x="730" 
d="M690 210q0 -91 -39 -139q-56 -69 -202 -69h-386v122h363q57 0 83 15q32 19 32 64q0 46 -25.5 65.5t-80.5 19.5h-171q-114 0 -170 46q-60 49 -60 156q0 109 58.5 159.5t182.5 50.5h381v-122h-358q-116 0 -116 -94q0 -39 26 -58.5t69 -19.5h192q102 0 148 -27
q73 -43 73 -169z" />
    <glyph glyph-name="afii10055" unicode="&#x406;" horiz-adv-x="298" 
d="M222 2h-149v698h149v-698z" />
    <glyph glyph-name="afii10056" unicode="&#x407;" horiz-adv-x="298" 
d="M222 2h-149v698h149v-698zM291 742h-111v120h111v-120zM116 742h-111v120h111v-120z" />
    <glyph glyph-name="afii10057" unicode="&#x408;" horiz-adv-x="540" 
d="M475 284q0 -165 -69 -226q-63 -56 -220 -56h-188v112h170q94 0 127 44.5t33 157.5v384h147v-416z" />
    <glyph glyph-name="afii10058" unicode="&#x409;" horiz-adv-x="991" 
d="M367 2l-1 525l-211 -525h-159l300 698h148l-2 -698h-75zM918.5 56q-67.5 -54 -230.5 -54h-315v698h143v-245h178q5 1 12 1h16q96 0 160 -34q104 -55 104 -193q0 -119 -67.5 -173zM693 333h-177v-208h169q74 0 108.5 22.5t34.5 81.5q0 104 -135 104z" />
    <glyph glyph-name="afii10059" unicode="&#x40a;" horiz-adv-x="1118" 
d="M627 2h-141v293h-270v-293h-143v698h143v-283h270v283h141v-698zM1031.5 53q-67.5 -54 -230.5 -54h-315v698h143v-245h178q5 1 12 1h16q96 0 160 -34q104 -55 104 -193q0 -119 -67.5 -173zM806 330h-177v-208h169q74 0 108.5 22.5t34.5 81.5q0 104 -135 104z" />
    <glyph glyph-name="afii10060" unicode="&#x40b;" horiz-adv-x="713" 
d="M709 2h-154v309q0 49 -23 69.5t-86 20.5h-126v-399h-150v698h150v-186h136q113 0 171 -32q82 -45 82 -156v-324zM478 580h-479v118h479v-118z" />
    <glyph glyph-name="afii10061" unicode="&#x40c;" horiz-adv-x="649" 
d="M664 2h-183l-265 348v-348h-143v698h143v-336l274 336h172l-277 -342zM547 870l-162 -133h-62l90 133h134z" />
    <glyph glyph-name="afii10062" unicode="&#x40e;" horiz-adv-x="653" 
d="M619 198q0 -95 -54 -144q-57 -53 -175 -53h-319v101h289q101 0 101 84h-148q-132 0 -188 38q-65 44 -65 156v317h155v-305q0 -52 13 -69q23 -29 97 -29h136v403h158v-499zM528 875q-14 -71 -42 -99q-33 -33 -105 -33q-65 0 -98 28t-49 104h59q17 -58 88 -58q76 0 89 58
h58z" />
    <glyph glyph-name="afii10145" unicode="&#x40f;" horiz-adv-x="741" 
d="M669 276v-35q0 -103 -43 -158q-70 -89 -254 -89q-205 0 -269 101q-31 49 -31 160v445h141v-420q-1 -20 -1 -33q0 -61 24 -94q37 -51 136 -51q88 0 122 39t34 139v420h141v-424zM447 -106h-122v177h122v-177z" />
    <glyph glyph-name="afii10017" unicode="&#x410;" horiz-adv-x="698" 
d="M717 2h-157l-65 168h-304l-61 -168h-149l290 698h151zM448 292l-106 276l-104 -276h210z" />
    <glyph glyph-name="afii10018" unicode="&#x411;" horiz-adv-x="716" 
d="M618.5 56q-67.5 -54 -230.5 -54h-315v698h143v-245h178q5 1 12 1h16q96 0 160 -34q104 -55 104 -193q0 -119 -67.5 -173zM393 333h-177v-208h169q74 0 108.5 22.5t34.5 81.5q0 104 -135 104zM85 685l8 17h563v-155h-108v38h-478l11 54z" />
    <glyph glyph-name="afii10019" unicode="&#x412;" horiz-adv-x="730" 
d="M684 196q0 -92 -38 -135q-52 -59 -193 -59h-380v698h355q121 0 176 -31q78 -44 78 -160q0 -55 -24 -90.5t-81 -67.5q57 -27 82 -62t25 -93zM528 494q0 83 -98 83h-214v-164h211q48 0 72 16q29 20 29 65zM530 206q0 85 -98 85h-216v-168h213q47 0 72 17q29 20 29 66z" />
    <glyph glyph-name="afii10020" unicode="&#x413;" horiz-adv-x="538" 
d="M508 588h-172q-102 0 -137 -53q-23 -35 -23 -111v-38v-384h-141v416q0 146 57 211q62 71 209 71h207v-112z" />
    <glyph glyph-name="afii10021" unicode="&#x414;" horiz-adv-x="942" 
d="M758 -6h-141v420q0 100 -34 139t-122 39q-99 0 -136 -51q-24 -33 -24 -94q0 -13 1 -33v-420h-141v445q0 111 31 160q64 101 269 101q184 0 254 -89q43 -55 43 -158v-35v-424zM15 -128l-1 -3q-13 147 49 209q56 57 183 57h361v-141h-333h-33q-66 0 -97 -23
q-46 -35 -46 -100l4 1h-87zM839 -128l4 -1q0 65 -46 100q-31 23 -97 23h-33h-333v141h361q127 0 184 -57q61 -62 48 -209l-1 3h-87z" />
    <glyph glyph-name="afii10022" unicode="&#x415;" horiz-adv-x="653" 
d="M594 2h-244q-150 0 -232 78q-90 85 -90 258q0 202 87 287q76 75 239 75h240v-118h-238q-79 0 -120.5 -41.5t-41.5 -126.5h400v-119h-403q0 -97 46 -139q39 -36 119 -36h238v-118z" />
    <glyph glyph-name="afii10024" unicode="&#x416;" horiz-adv-x="1043" 
d="M1039 2h-180l-260 348v-348h-141v698h141v-336l269 336h169l-272 -342zM281 358l-277 342h172l274 -336v336h143v-698h-143v348l-265 -348h-183z" />
    <glyph glyph-name="afii10025" unicode="&#x417;" horiz-adv-x="664" 
d="M619 185q0 -98 -64 -145q-55 -41 -150 -41h-345v116h283q56 0 85.5 20t29.5 68q0 45 -31 66.5t-84 21.5h-228v116h224q56 0 83 18q32 21 32 68q0 88 -115 88h-279v116h330q134 0 185 -53q43 -45 43 -134q0 -46 -23.5 -86.5t-69.5 -75.5q36 -19 60 -51q34 -46 34 -112z
" />
    <glyph glyph-name="afii10026" unicode="&#x418;" horiz-adv-x="750" 
d="M73 700h137v-504l286 504h183v-698h-141v530l-300 -530h-165v698z" />
    <glyph glyph-name="afii10027" unicode="&#x419;" horiz-adv-x="750" 
d="M73 700h137v-504l286 504h183v-698h-141v530l-300 -530h-165v698zM528 875q-14 -71 -42 -99q-33 -33 -105 -33q-65 0 -98 28t-49 104h59q17 -58 88 -58q76 0 89 58h58z" />
    <glyph glyph-name="afii10028" unicode="&#x41a;" horiz-adv-x="649" 
d="M664 2h-183l-265 348v-348h-143v698h143v-336l274 336h172l-277 -342z" />
    <glyph glyph-name="afii10029" unicode="&#x41b;" horiz-adv-x="728" 
d="M581 2l-215 525l-211 -525h-159l300 698h148l287 -698h-150z" />
    <glyph glyph-name="afii10030" unicode="&#x41c;" horiz-adv-x="1067" 
d="M923 2l-149 545l-158 -545h-170l-135 538h-4l-159 -538h-151l229 698h174l130 -520h4l146 520h176l212 -698h-145z" />
    <glyph glyph-name="afii10031" unicode="&#x41d;" horiz-adv-x="702" 
d="M627 2h-141v293h-270v-293h-143v698h143v-283h270v283h141v-698z" />
    <glyph glyph-name="afii10032" unicode="&#x41e;" horiz-adv-x="746" 
d="M719 351q0 -198 -106 -289q-87 -75 -239 -75q-79 0 -137 18q-91 28 -143 100q-66 91 -66 248q0 150 54 236q45 71 132 102q65 23 158 23q148 0 230 -57q69 -48 97 -139q20 -66 20 -167zM564 350q0 137 -55 197q-46 50 -136 50q-89 0 -140 -61.5t-51 -182.5
q0 -115 28 -168q43 -82 163 -82q105 0 151 68q40 59 40 179z" />
    <glyph glyph-name="afii10033" unicode="&#x41f;" horiz-adv-x="741" 
d="M669 -6h-141v420q0 100 -34 139t-122 39q-99 0 -136 -51q-24 -33 -24 -94q0 -13 1 -33v-420h-141v445q0 111 31 160q64 101 269 101q184 0 254 -89q43 -55 43 -158v-35v-424z" />
    <glyph glyph-name="afii10034" unicode="&#x420;" horiz-adv-x="716" 
d="M686 473q0 -138 -104 -193q-64 -34 -160 -34h-16t-12 1h-178v-245h-143v698h315q163 0 230.5 -54t67.5 -173zM528 473q0 59 -34.5 81.5t-108.5 22.5h-169v-208h177q135 0 135 104z" />
    <glyph glyph-name="afii10035" unicode="&#x421;" horiz-adv-x="631" 
d="M594 2h-244q-150 0 -232 78q-90 85 -90 258q0 168 68 257q80 105 258 105h240v-116h-238q-100 0 -141 -72q-31 -55 -31 -161v-35q0 -84 24 -126q40 -70 148 -70h238v-118z" />
    <glyph glyph-name="afii10036" unicode="&#x422;" horiz-adv-x="598" 
d="M596 579h-223v-577h-150v577h-221v119h594v-119z" />
    <glyph glyph-name="afii10037" unicode="&#x423;" horiz-adv-x="653" 
d="M619 198q0 -95 -54 -144q-57 -53 -175 -53h-319v101h289q101 0 101 84h-148q-132 0 -188 38q-65 44 -65 156v317h155v-305q0 -52 13 -69q23 -29 97 -29h136v403h158v-499z" />
    <glyph glyph-name="afii10038" unicode="&#x424;" horiz-adv-x="1144" 
d="M1113 477q0 -138 -104 -193q-63 -34 -159 -34h-16t-12 1h-177v-245h-143v698h314q162 0 229.5 -54t67.5 -173zM955 473q0 59 -34.5 81.5t-108.5 22.5h-169v-208h177q135 0 135 104zM98.5 646q67.5 54 230.5 54h315v-698h-143v245h-178q-5 -1 -12 -1h-16q-96 0 -160 34
q-104 55 -104 193q0 119 67.5 173zM324 369h177v208h-169q-74 0 -108.5 -22.5t-34.5 -81.5q0 -104 135 -104z" />
    <glyph glyph-name="afii10039" unicode="&#x425;" horiz-adv-x="624" 
d="M630 2h-170l-147 243l-155 -243h-169l240 349l-232 349h167l143 -222l142 222h165l-221 -340z" />
    <glyph glyph-name="afii10040" unicode="&#x426;" horiz-adv-x="698" 
d="M530 2h-207q-147 0 -209 71q-57 65 -57 211v416h141v-384v-38q0 -76 23 -111q35 -53 137 -53h172v-112zM601 4l-149 4v698h149v-702zM718 113l-66 -236l-52 -34l2 271z" />
    <glyph glyph-name="afii10041" unicode="&#x427;" horiz-adv-x="657" 
d="M61 700h154v-309q0 -49 23 -69.5t86 -20.5h126v399h150v-698h-150v186h-136q-113 0 -171 32q-82 45 -82 156v324z" />
    <glyph glyph-name="afii10042" unicode="&#x428;" horiz-adv-x="829" 
d="M-2 700h147v-384q0 -113 33 -157.5t127 -44.5h170v-112h-188q-157 0 -220 56q-69 61 -69 226v416zM824 284q0 -165 -69 -226q-63 -56 -220 -56h-188v112h170q94 0 127 44.5t33 157.5v384h147v-416zM489 13h-149v689h149v-689z" />
    <glyph glyph-name="afii10043" unicode="&#x429;" horiz-adv-x="930" 
d="M-2 700h147v-384q0 -113 33 -157.5t127 -44.5h170v-112h-188q-157 0 -220 56q-69 61 -69 226v416zM824 284q0 -165 -69 -226q-63 -56 -220 -56h-188v112h170q94 0 127 44.5t33 157.5v384h147v-416zM489 13h-149v689h149v-689zM935 199l-66 -236l-52 -34l2 271z" />
    <glyph glyph-name="afii10044" unicode="&#x42a;" horiz-adv-x="716" 
d="M618.5 56q-67.5 -54 -230.5 -54h-315v698h143v-245h178q5 1 12 1h16q96 0 160 -34q104 -55 104 -193q0 -119 -67.5 -173zM393 333h-177v-208h169q74 0 108.5 22.5t34.5 81.5q0 104 -135 104z" />
    <glyph glyph-name="afii10045" unicode="&#x42b;" horiz-adv-x="919" 
d="M648.5 53q-67.5 -54 -230.5 -54h-315v698h143v-245h178q5 1 12 1h16q96 0 160 -34q104 -55 104 -193q0 -119 -67.5 -173zM423 330h-177v-208h169q74 0 108.5 22.5t34.5 81.5q0 104 -135 104zM897 2h-149v698h149v-698z" />
    <glyph glyph-name="afii10046" unicode="&#x42c;" horiz-adv-x="716" 
d="M618.5 56q-67.5 -54 -230.5 -54h-315v698h143v-245h178q5 1 12 1h16q96 0 160 -34q104 -55 104 -193q0 -119 -67.5 -173zM393 333h-177v-208h169q74 0 108.5 22.5t34.5 81.5q0 104 -135 104z" />
    <glyph glyph-name="afii10047" unicode="&#x42d;" horiz-adv-x="653" 
d="M47 120h238q80 0 119 36q46 42 46 139h-403v119h400q0 85 -41.5 126.5t-120.5 41.5h-238v118h240q163 0 239 -75q87 -85 87 -287q0 -173 -90 -258q-82 -78 -232 -78h-244v118z" />
    <glyph glyph-name="afii10048" unicode="&#x42e;" horiz-adv-x="1039" 
d="M222 2h-149v698h149v-698zM316 288h-111v120h111v-120zM967 351q0 -198 -106 -289q-87 -75 -239 -75q-79 0 -137 18q-91 28 -143 100q-66 91 -66 248q0 150 54 236q45 71 132 102q65 23 158 23q148 0 230 -57q69 -48 97 -139q20 -66 20 -167zM812 350q0 137 -55 197
q-46 50 -136 50q-89 0 -140 -61.5t-51 -182.5q0 -115 28 -168q43 -82 163 -82q105 0 151 68q40 59 40 179z" />
    <glyph glyph-name="afii10049" unicode="&#x42f;" horiz-adv-x="724" 
d="M192 295q-72 17 -107 70q-31 47 -31 125q0 115 64 165q57 45 177 45h357v-698h-142v274h-174l-154 -274h-158zM236 408q24 -11 94 -11h179v180h-178q-70 0 -102 -19t-32 -70q0 -62 39 -80z" />
    <glyph glyph-name="afii10065" unicode="&#x430;" horiz-adv-x="613" 
d="M550 2h-358q-74 0 -115 40t-41 110q0 85 48 121.5t153 36.5h178q0 58 -25 79t-97 21h-223v103h273q82 0 125 -23q82 -44 82 -168v-320zM416 101v111h-159q-41 0 -58 -8q-25 -12 -25 -48q0 -29 19 -42t54 -13h169z" />
    <glyph glyph-name="afii10066" unicode="&#x431;" horiz-adv-x="588" 
d="M45 494q0 101 45 152t146 51h262v-101h-238q-82 0 -82 -83h124q96 0 158 -43q93 -64 93 -212q0 -128 -68.5 -192.5t-196.5 -64.5h-243v493zM178 410v-303h72q95 0 133 42q33 36 33 113q0 73 -29 107q-35 41 -122 41h-87z" />
    <glyph glyph-name="afii10067" unicode="&#x432;" horiz-adv-x="619" 
d="M582 148q0 -68 -34 -100q-45 -43 -170 -43h-335v513h313q107 0 155 -23q69 -32 69 -117q0 -41 -21 -67t-71 -49q50 -20 72 -46t22 -68zM444 367q0 61 -86 61h-189v-121h186q43 0 64 12q25 15 25 48zM446 155q0 62 -86 62h-191v-123h188q42 0 64 12q25 15 25 49z" />
    <glyph glyph-name="afii10068" unicode="&#x433;" horiz-adv-x="573" 
d="M97 286q40 26 115 26h123q61 0 65 45v9q0 44 -71 44h-258v103h286q177 0 177 -162q0 -87 -53 -121q-33 -21 -92 -21q-11 0 -28 1h-117q-73 0 -73 -52q0 -54 73 -54h281v-102h-343q-65 0 -101.5 45.5t-36.5 122.5q0 81 53 116z" />
    <glyph glyph-name="afii10069" unicode="&#x434;" horiz-adv-x="588" 
d="M534 20q0 -101 -45 -152t-146 -51h-262v101h238q82 0 82 83h-124q-96 0 -158 43q-93 64 -93 212q0 128 68.5 192.5t196.5 64.5h243v-493zM401 104v303h-72q-95 0 -133 -42q-33 -36 -33 -113q0 -73 29 -107q35 -41 122 -41h87z" />
    <glyph glyph-name="afii10070" unicode="&#x435;" horiz-adv-x="509" 
d="M479 2h-194q-125 0 -190 69t-65 187q0 152 93 214q61 41 162 41h194v-103h-176q-69 0 -97 -21.5t-28 -79.5h301v-105h-303q0 -56 25.5 -78t100.5 -22h177v-102z" />
    <glyph glyph-name="afii10072" unicode="&#x436;" horiz-adv-x="908" 
d="M906 2h-177l-207 249v-249h-131v515l131 -1v-249l218 246h166l-233 -249zM241 264l-233 249h166l218 -246v249l131 1v-515h-131v249l-207 -249h-177z" />
    <glyph glyph-name="afii10073" unicode="&#x437;" horiz-adv-x="582" 
d="M533 142q0 -73 -54 -109q-46 -30 -126 -30h-292v87h239q48 0 73 15t25 50q0 34 -25.5 50t-72.5 16h-193v86h189q49 0 73.5 13.5t24.5 50.5q0 65 -98 65h-235v86h279q88 0 131 -23q62 -32 62 -116q0 -35 -20 -64.5t-58 -55.5q29 -13 50 -38q28 -36 28 -83z" />
    <glyph glyph-name="afii10074" unicode="&#x438;" horiz-adv-x="581" 
d="M516 2h-251q-107 0 -154 38q-54 43 -54 148v325h129v-315q0 -43 17 -63q21 -25 72 -25h111v403h130v-511z" />
    <glyph glyph-name="afii10075" unicode="&#x439;" horiz-adv-x="581" 
d="M516 2h-251q-107 0 -154 38q-54 43 -54 148v325h129v-315q0 -43 17 -63q21 -25 72 -25h111v403h130v-511zM441 729q-14 -71 -42 -99q-33 -33 -105 -33q-65 0 -98 28t-49 104h59q17 -58 88 -58q76 0 89 58h58z" />
    <glyph glyph-name="afii10076" unicode="&#x43a;" horiz-adv-x="581" 
d="M579 2h-177l-207 249v-249h-131v515l131 -1v-249l218 246h166l-233 -249z" />
    <glyph glyph-name="afii10077" unicode="&#x43b;" horiz-adv-x="588" 
d="M443 2l-150 371l-144 -371h-144l214 511h139l225 -511h-140z" />
    <glyph glyph-name="afii10078" unicode="&#x43c;" horiz-adv-x="843" 
d="M718 2l-112 366l-116 -366h-139l-114 366l-113 -366h-135l177 511h143l110 -357l113 357h149l172 -511h-135z" />
    <glyph glyph-name="afii10080" unicode="&#x43e;" horiz-adv-x="588" 
d="M562 258q0 -122 -72.5 -194.5t-195.5 -72.5q-122 0 -195 71t-73 196q0 150 97 217q69 48 171 48q98 0 169 -50q99 -70 99 -215zM426 256q0 68 -33 111q-36 47 -98 47q-49 0 -87 -37q-46 -44 -46 -121q0 -61 34 -106q38 -51 97 -51q61 0 99 49q34 44 34 108z" />
    <glyph glyph-name="afii10081" unicode="&#x43f;" horiz-adv-x="579" 
d="M522 2h-132v307v15q0 36 -12 51q-21 26 -79 26h-108v-399h-130v511h250q110 0 156 -35q55 -42 55 -152v-324z" />
    <glyph glyph-name="afii10082" unicode="&#x440;" horiz-adv-x="590" 
d="M564 252q0 -122 -64 -186t-191 -64h-119v-185h-129v696h256q110 0 176 -64q71 -69 71 -197zM426 261q0 72 -24 103q-33 42 -125 42h-86v-298h51q111 0 151 41q33 34 33 112z" />
    <glyph glyph-name="afii10083" unicode="&#x441;" horiz-adv-x="509" 
d="M475 2h-179q-114 0 -183 55q-83 66 -83 199q0 155 95 216q63 41 171 41h179v-109h-170q-79 0 -110 -41q-27 -36 -27 -107q0 -86 44 -121q34 -27 107 -27h156v-106z" />
    <glyph glyph-name="afii10084" unicode="&#x442;" horiz-adv-x="847" 
d="M783 2h-130v307q0 54 -18.5 73.5t-70.5 19.5h-76v-400h-137v399h-160v-399h-130v511h512q101 0 150 -35q60 -43 60 -152v-324z" />
    <glyph glyph-name="afii10085" unicode="&#x443;" horiz-adv-x="581" 
d="M516 14q0 -95 -44 -144q-47 -53 -144 -53h-262v101h237q83 0 83 84h-121q-109 0 -155 38q-53 44 -53 156v317h127v-305q0 -52 11 -69q19 -29 80 -29h111v403h130v-499z" />
    <glyph glyph-name="afii10086" unicode="&#x444;" horiz-adv-x="900" 
d="M891 252q0 -122 -64 -186t-191 -64h-119v-185h-129v696h256q110 0 176 -64q71 -69 71 -197zM753 261q0 72 -24 103q-33 42 -125 42h-86v-298h51q111 0 151 41q33 34 33 112zM87 449q66 64 176 64h256v-696h-129v185h-119q-127 0 -191 64t-64 186q0 128 71 197zM187 149
q40 -41 151 -41h51v298h-86q-92 0 -125 -42q-24 -31 -24 -103q0 -78 33 -112z" />
    <glyph glyph-name="afii10087" unicode="&#x445;" horiz-adv-x="534" 
d="M531 513l-187 -259l183 -252h-153l-109 147l-107 -147h-151l184 256l-186 255h151l109 -156l114 156h152z" />
    <glyph glyph-name="afii10088" unicode="&#x446;" horiz-adv-x="612" 
d="M519 5l-254 -3q-107 0 -154 38q-54 43 -54 148v325h129v-315q0 -43 17 -63q21 -25 72 -25h111v403h130zM516 100h114l-60 -199l-52 -35z" />
    <glyph glyph-name="afii10089" unicode="&#x447;" horiz-adv-x="559" 
d="M61 518h132v-228q0 -37 19.5 -52t73.5 -15h108v295h128v-516h-128v138h-117q-96 0 -146 23q-70 33 -70 115v240z" />
    <glyph glyph-name="afii10090" unicode="&#x448;" horiz-adv-x="847" 
d="M61 513h130v-307q0 -54 18.5 -73.5t70.5 -19.5h76v400h137v-399h160v399h130v-511h-512q-101 0 -150 35q-60 43 -60 152v324z" />
    <glyph glyph-name="afii10091" unicode="&#x449;" horiz-adv-x="874" 
d="M61 513h130v-307q0 -54 18.5 -73.5t70.5 -19.5h76v400h137v-399h160v399h130v-511h-512q-101 0 -150 35q-60 43 -60 152v324zM786 104h114l-60 -199l-52 -35z" />
    <glyph glyph-name="afii10092" unicode="&#x44a;" horiz-adv-x="627" 
d="M93 514h131v-136h116q109 0 177 -42q79 -48 79 -141q0 -78 -57 -131q-66 -63 -189 -63h-257v513zM224 300v-220h84q86 0 121 29q30 25 30 78q0 51 -29 79q-36 34 -122 34h-84zM102 392h-111v122h111v-122z" />
    <glyph glyph-name="afii10093" unicode="&#x44b;" horiz-adv-x="732" 
d="M48 514h131v-136h116q109 0 177 -42q79 -48 79 -141q0 -78 -57 -131q-66 -63 -189 -63h-257v513zM179 300v-220h84q86 0 121 29q30 25 30 78q0 51 -29 79q-36 34 -122 34h-84zM710 -2h-135v511h135v-511z" />
    <glyph glyph-name="afii10094" unicode="&#x44c;" horiz-adv-x="588" 
d="M48 514h131v-136h116q109 0 177 -42q79 -48 79 -141q0 -78 -57 -131q-66 -63 -189 -63h-257v513zM179 300v-220h84q86 0 121 29q30 25 30 78q0 51 -29 79q-36 34 -122 34h-84z" />
    <glyph glyph-name="afii10095" unicode="&#x44d;" horiz-adv-x="509" 
d="M30 104h177q75 0 100.5 22t25.5 78h-303v105h301q0 58 -28 79.5t-97 21.5h-176v103h194q101 0 162 -41q93 -62 93 -214q0 -118 -65 -187t-190 -69h-194v102z" />
    <glyph glyph-name="afii10096" unicode="&#x44e;" horiz-adv-x="844" 
d="M308 193h-135v124h135v-124zM196 2h-135v511h135v-511zM799 266q0 -122 -72.5 -194.5t-195.5 -72.5q-122 0 -195 71t-73 196q0 150 97 217q69 48 171 48q98 0 169 -50q99 -70 99 -215zM663 264q0 68 -33 111q-36 47 -98 47q-49 0 -87 -37q-46 -44 -46 -121q0 -61 34 -106
q38 -51 97 -51q61 0 99 49q34 44 34 108z" />
    <glyph glyph-name="afii10097" unicode="&#x44f;" horiz-adv-x="615" 
d="M171 219q-63 12 -94 51q-27 35 -27 93q0 85 56 122q50 33 155 33h313v-516h-124v203h-153l-135 -203h-138zM210 302q21 -8 82 -8h157v133h-156q-61 0 -89 -14t-28 -52q0 -46 34 -59z" />
    <glyph glyph-name="afii10071" unicode="&#x451;" horiz-adv-x="509" 
d="M479 2h-194q-125 0 -190 69t-65 187q0 152 93 214q61 41 162 41h194v-103h-176q-69 0 -97 -21.5t-28 -79.5h301v-105h-303q0 -56 25.5 -78t100.5 -22h177v-102zM480 570h-105v95h105v-95zM323 570h-105v95h105v-95z" />
    <glyph glyph-name="afii10099" unicode="&#x452;" horiz-adv-x="581" 
d="M522 2h-132v309q0 49 -19.5 69.5t-73.5 20.5h-108v-399h-128v698h128v-186h117q96 0 146 -32q70 -45 70 -156v-324zM283 553h-321v118h321v-118zM513 1q9 -107 -31 -163q-44 -29 -116 -29q-65 0 -98 41t-34 118l44 -19q17 -32 66 -32q64 -5 51 91z" />
    <glyph glyph-name="afii10100" unicode="&#x453;" horiz-adv-x="573" 
d="M97 286q40 26 115 26h123q61 0 65 45v9q0 44 -71 44h-258v103h286q177 0 177 -162q0 -87 -53 -121q-33 -21 -92 -21q-11 0 -28 1h-117q-73 0 -73 -52q0 -54 73 -54h281v-102h-343q-65 0 -101.5 45.5t-36.5 122.5q0 81 53 116zM465 702l-162 -133h-62l90 133h134z" />
    <glyph glyph-name="afii10101" unicode="&#x454;" horiz-adv-x="509" 
d="M479 2h-194q-125 0 -190 69t-65 187q0 152 93 214q61 41 162 41h194v-103h-176q-69 0 -97 -21.5t-28 -79.5h170v-105h-172q0 -56 25.5 -78t100.5 -22h177v-102z" />
    <glyph glyph-name="afii10102" unicode="&#x455;" horiz-adv-x="573" 
d="M534 170q0 -77 -36.5 -122.5t-101.5 -45.5h-343v102h281q73 0 73 54q0 52 -73 52h-117q-17 -1 -28 -1q-59 0 -92 21q-53 34 -53 121q0 162 177 162h286v-103h-258q-71 0 -71 -44v-9q4 -45 65 -45h123q75 0 115 -26q53 -35 53 -116z" />
    <glyph glyph-name="afii10103" unicode="&#x456;" horiz-adv-x="257" 
d="M196 576h-135v124h135v-124zM196 2h-135v511h135v-511z" />
    <glyph glyph-name="afii10104" unicode="&#x457;" horiz-adv-x="257" 
d="M196 2h-135v511h135v-511zM263 574h-105v95h105v-95zM106 574h-105v95h105v-95z" />
    <glyph glyph-name="afii10105" unicode="&#x458;" horiz-adv-x="257" 
d="M196 576h-135v124h135v-124zM196 24q0 -105 -46.5 -156.5t-147.5 -51.5l-66 1v105h56q40 0 56 28q13 23 13 80v483h135v-489z" />
    <glyph glyph-name="afii10106" unicode="&#x459;" horiz-adv-x="945" 
d="M443 2l-150 371l-144 -371h-144l214 511h139l225 -511h-140zM408 518h131v-136h116q109 0 177 -42q79 -48 79 -141q0 -78 -57 -131q-66 -63 -189 -63h-257v513zM539 304v-220h84q86 0 121 29q30 25 30 78q0 51 -29 79q-36 34 -122 34h-84z" />
    <glyph glyph-name="afii10107" unicode="&#x45a;" horiz-adv-x="934" 
d="M533 6h-121v212h-231v-212h-123v505h123v-205h231v205h121v-505zM408 518h131v-136h116q109 0 177 -42q79 -48 79 -141q0 -78 -57 -131q-66 -63 -189 -63h-257v513zM539 304v-220h84q86 0 121 29q30 25 30 78q0 51 -29 79q-36 34 -122 34h-84z" />
    <glyph glyph-name="afii10108" unicode="&#x45b;" horiz-adv-x="581" 
d="M522 2h-132v309q0 49 -19.5 69.5t-73.5 20.5h-108v-399h-128v698h128v-186h117q96 0 146 -32q70 -45 70 -156v-324zM283 553h-321v118h321v-118z" />
    <glyph glyph-name="afii10109" unicode="&#x45c;" horiz-adv-x="581" 
d="M579 2h-177l-207 249v-249h-131v515l131 -1v-249l218 246h166l-233 -249zM495 701l-162 -133h-62l90 133h134z" />
    <glyph glyph-name="afii10110" unicode="&#x45e;" horiz-adv-x="581" 
d="M516 14q0 -95 -44 -144q-47 -53 -144 -53h-262v101h237q83 0 83 84h-121q-109 0 -155 38q-53 44 -53 156v317h127v-305q0 -52 11 -69q19 -29 80 -29h111v403h130v-499z" />
    <glyph glyph-name="afii10193" unicode="&#x45f;" horiz-adv-x="581" 
d="M516 2h-251q-107 0 -154 38q-54 43 -54 148v325h129v-315q0 -43 17 -63q21 -25 72 -25h111v403h130v-511z" />
    <glyph glyph-name="afii10079" unicode="&#x43d;" horiz-adv-x="581" 
d="M522 6h-118v212h-226v-212h-120v505h120v-205h226v205h118v-505z" />
    <glyph glyph-name="afii10050" unicode="&#x490;" horiz-adv-x="538" 
d="M508 588h-172q-102 0 -137 -53q-23 -35 -23 -111v-38v-384h-141v416q0 146 57 211q62 71 209 71h207v-112zM391 794l81 107l8 -208l-38 -50z" />
    <glyph glyph-name="afii10098" unicode="&#x491;" horiz-adv-x="573" 
d="M97 286q40 26 115 26h123q61 0 65 45v9q0 44 -71 44h-258v103h286q177 0 177 -162q0 -87 -53 -121q-33 -21 -92 -21q-11 0 -28 1h-117q-73 0 -73 -52q0 -54 73 -54h281v-102h-343q-65 0 -101.5 45.5t-36.5 122.5q0 81 53 116zM406 603l81 107l8 -208l-38 -50z" />
    <glyph glyph-name="uniF70A" unicode="&#xf70a;" horiz-adv-x="190" 
d="M151 2h-111v118h111v-118z" />
    <glyph glyph-name="uniF70B" unicode="&#xf70b;" horiz-adv-x="190" 
d="M155 707h-111v118h111v-118z" />
    <glyph glyph-name="uni02C9" unicode="&#x2c9;" horiz-adv-x="401" 
d="M348 706h-298v94h298v-94z" />
    <glyph glyph-name="dotaccent" unicode="&#x2d9;" horiz-adv-x="190" 
d="M154 700h-111v118h111v-118z" />
    <glyph glyph-name="ogonek" unicode="&#x2db;" horiz-adv-x="390" 
d="M337 -138q-56 -46 -96 -49q-46 -4 -101 42q-50 41 -57.5 84t28.5 111l46 -38q-24 -55 30 -100q58 -49 106 -13z" />
    <glyph glyph-name="hungarumlaut" unicode="&#x2dd;" horiz-adv-x="333" 
d="M346 824l-80 -193l-55 -29l17 159zM211 827l-80 -193l-55 -29l17 159z" />
    <glyph glyph-name="gravecomb" unicode="&#x300;" horiz-adv-x="333" 
d="M184 719l90 -132h-62l-162 132h134z" />
    <glyph glyph-name="acutecomb" unicode="&#x301;" horiz-adv-x="333" 
d="M274 719l-162 -132h-62l90 132h134z" />
    <glyph glyph-name="hookabovecomb" unicode="&#x309;" horiz-adv-x="390" 
d="M134 666q57 -17 94 49q35 62 -7 105l29 52q58 -51 66.5 -93.5t-23.5 -99.5q-35 -63 -80 -75q-38 -11 -107 11z" />
  </font>
</defs>
</svg>
